<?xml version="1.0" standalone="no"?>
<!DOCTYPE svg PUBLIC "-//W3C//DTD SVG 1.1//EN" "http://www.w3.org/Graphics/SVG/1.1/DTD/svg11.dtd" >
<svg>
<metadata>
Created by FontForge 20110222 at Mon Mar  7 11:50:18 2011
 By www-data
Carolus FG Beta version 0.99
</metadata>
<defs>
<font id="CarolusFG" horiz-adv-x="625" >
  <font-face 
    font-family="Carolus FG"
    font-weight="400"
    font-stretch="normal"
    units-per-em="1000"
    panose-1="2 0 5 3 0 0 0 0 0 0"
    ascent="800"
    descent="-200"
    x-height="272"
    cap-height="576"
    bbox="-162 -374 1311 726"
    underline-thickness="20"
    underline-position="-143"
    unicode-range="U+0020-2122"
  />
    <missing-glyph />
    <glyph glyph-name="space" unicode=" " horiz-adv-x="224" 
 />
    <glyph glyph-name="exclam" unicode="!" horiz-adv-x="162" 
d="M112 182l-80 -46v402l80 56v-412zM112 48l-80 -54v72l80 70v-88z" />
    <glyph glyph-name="quotedbl" unicode="&#x22;" horiz-adv-x="196" 
d="M168 528c0 -41 -8 -82 -24 -123c-6 0 -11 16 -16 49c-4 28 -15 55 -33 82c41 26 63 39 66 39c5 0 7 -16 7 -47zM64 529c0 -39 -8 -80 -24 -123c-5 0 -10 16 -15 49c-4 27 -15 55 -34 82c35 26 57 39 66 39c5 0 7 -16 7 -47z" />
    <glyph glyph-name="numbersign" unicode="#" horiz-adv-x="412" 
d="M389 472l-45 -32h-48l-32 -56h88l-48 -32h-56l-17 -29l-66 -35l35 64h-64l-25 -53l-59 -29l36 82h-88l48 32h56l24 56h-88l48 32h56l20 35l69 23l-33 -58h64l18 35l60 23l-38 -58h85zM248 440h-64l-32 -56h64z" />
    <glyph glyph-name="dollar" unicode="$" horiz-adv-x="526" 
d="M500 531l-105 -43c-19 46 -42 64 -91 72v-195c142 -47 184 -90 184 -178c0 -92 -44 -142 -184 -187c0 -22 -3 -35 -9 -38c-40 -16 -40 -16 -47 -16v54c-96 0 -152 19 -224 75l96 53c22 -61 65 -99 128 -112v258c-156 35 -184 75 -184 155c0 72 61 118 184 139v24
c5 5 16 10 31 16c5 1 14 3 25 8v-48c65 0 131 -12 196 -37zM248 376v184c-77 -11 -104 -39 -104 -106c0 -51 9 -63 104 -78zM416 136c0 54 -29 85 -112 120v-243c81 25 112 59 112 123z" />
    <glyph glyph-name="percent" unicode="%" horiz-adv-x="460" 
d="M240 521c0 -51 -82 -113 -146 -113c-49 0 -86 27 -86 65c0 56 78 103 158 103c55 0 74 -14 74 -55zM184 495c0 35 -30 65 -63 65c-31 0 -57 -28 -57 -61s36 -59 78 -59c28 0 42 18 42 55zM398 573l-266 -537c-10 -18 -56 -44 -85 -44l269 540c6 12 50 38 74 43zM432 116
c0 -55 -81 -116 -147 -116c-45 0 -85 29 -85 65c0 54 77 103 158 103c55 0 74 -13 74 -52zM376 87c0 35 -30 65 -63 65c-31 0 -57 -28 -57 -61s36 -59 78 -59c28 0 42 18 42 55z" />
    <glyph glyph-name="ampersand" unicode="&#x26;" horiz-adv-x="602" 
d="M579 32c-45 -54 -78 -72 -131 -72c-56 0 -111 37 -164 112c-72 -64 -132 -96 -180 -96c-58 0 -104 67 -104 147c0 79 67 137 173 157c-31 46 -46 92 -46 139c18 51 20 58 89 89c42 19 76 28 101 28c42 0 83 -44 83 -88c0 -47 -41 -95 -122 -146l80 -160
c71 46 100 58 143 58c24 0 46 -6 67 -19l-76 -37c-20 11 -41 16 -64 16c-22 0 -42 -5 -60 -16c40 -74 106 -128 157 -128c21 0 39 5 54 16zM344 424c0 46 -36 80 -83 80c-25 0 -48 -20 -48 -42c0 -18 20 -68 60 -150c36 8 71 64 71 112zM272 82l-96 186
c-59 -18 -88 -52 -88 -103c0 -69 39 -133 84 -133c31 0 65 17 100 50z" />
    <glyph glyph-name="quotesingle" unicode="'" horiz-adv-x="99" 
d="M64 529c0 -31 -10 -64 -30 -99c-3 29 -3 30 -18 116c0 8 30 30 41 30c5 0 7 -16 7 -47z" />
    <glyph glyph-name="parenleft" unicode="(" horiz-adv-x="230" 
d="M224 618c-40 -56 -88 -209 -88 -351c0 -125 28 -241 84 -349l-75 -52c-48 54 -81 193 -81 338c0 115 23 335 160 414z" />
    <glyph glyph-name="parenright" unicode=")" horiz-adv-x="200" 
d="M176 276c0 -120 -22 -338 -165 -418c70 135 93 219 93 355c0 125 -29 243 -88 353l77 52c50 -56 83 -192 83 -342z" />
    <glyph glyph-name="asterisk" unicode="*" horiz-adv-x="226" 
d="M128 444v-4l2 2zM192 383l-10 -7l-54 56v-69l-16 -13v74l-54 -48l-10 9l56 57l-56 58l10 12l54 -56v62l16 12v-86c4 3 22 25 55 68l9 -9c-19 -16 -39 -36 -62 -61z" />
    <glyph glyph-name="plus" unicode="+" horiz-adv-x="411" 
d="M384 264l-111 -56h-65v-112l-32 -18v130h-176l111 56h65v110l32 20v-130h176z" />
    <glyph glyph-name="comma" unicode="," horiz-adv-x="198" 
d="M154 30c0 -25 -33 -62 -100 -112l-11 29c20 13 30 31 30 52c0 23 -12 46 -35 69l71 58c30 -41 45 -73 45 -96z" />
    <glyph glyph-name="hyphen" unicode="-" horiz-adv-x="462" 
d="M412 192l-110 -56h-270l110 56h270z" />
    <glyph glyph-name="period" unicode="." horiz-adv-x="169" 
d="M145 35c-16 -13 -40 -33 -71 -60c-9 16 -25 38 -48 67l71 58c11 -14 27 -36 48 -65z" />
    <glyph glyph-name="slash" unicode="/" horiz-adv-x="312" 
d="M300 576l-232 -584h-60l232 584h60z" />
    <glyph glyph-name="zero" unicode="0" horiz-adv-x="602" 
d="M584 295c0 -177 -127 -303 -305 -303c-98 0 -169 37 -213 112c-39 65 -58 127 -58 185c0 153 156 303 316 303c145 0 260 -131 260 -297zM504 217c0 183 -114 311 -278 311c-90 0 -122 -62 -122 -230c0 -142 115 -266 247 -266c102 0 153 62 153 185z" />
    <glyph glyph-name="one" unicode="1" horiz-adv-x="227" 
d="M168 33l-104 -55v518c0 14 -15 14 -56 14c90 59 105 66 130 66c20 0 30 -13 30 -40v-503z" />
    <glyph glyph-name="two" unicode="2" horiz-adv-x="535" 
d="M517 120c-97 -85 -172 -128 -227 -128c-21 0 -53 8 -96 24s-76 24 -101 24s-54 -3 -88 -8c41 11 196 119 257 187c55 62 82 122 82 180c0 71 -63 137 -131 137c-44 0 -69 -27 -74 -81l-95 -47c31 95 143 168 257 168c87 0 131 -39 131 -117c0 -95 -82 -214 -236 -343
c48 -35 100 -52 156 -52c55 0 110 19 165 56z" />
    <glyph glyph-name="three" unicode="3" horiz-adv-x="512" 
d="M496 157c0 -110 -114 -165 -205 -165c-21 0 -51 7 -90 20s-68 20 -88 20c-31 0 -63 -11 -97 -32c67 59 120 80 205 80c15 0 40 -8 73 -24c34 -16 56 -24 66 -24c37 0 56 19 56 57c0 110 -93 207 -200 207c93 53 128 95 128 150c0 54 -24 74 -89 74
c-46 0 -108 -15 -187 -46c64 61 162 102 246 102s126 -33 126 -99c0 -34 -14 -63 -42 -86c-3 -2 -31 -19 -86 -52c93 -10 148 -43 167 -99c11 -33 17 -61 17 -83z" />
    <glyph glyph-name="four" unicode="4" horiz-adv-x="632" 
d="M604 240l-70 -56h-54v-148l-104 -58v206l-368 8c79 74 136 185 136 267c0 27 -4 52 -12 75l97 42c13 -38 19 -73 19 -104c0 -99 -37 -161 -140 -232h268v318l104 36v-354h124z" />
    <glyph glyph-name="five" unicode="5" horiz-adv-x="560" 
d="M520 222c0 -104 -185 -214 -359 -214c-59 0 -107 16 -145 49l91 47c41 -27 93 -40 156 -40c101 0 169 42 169 105c0 11 -5 30 -15 59c-21 61 -87 100 -170 100c-65 0 -136 -24 -215 -72v263c0 19 52 57 92 57h396l-99 -56h-285v-192c77 37 145 56 205 56
c83 0 152 -44 168 -108c7 -29 11 -47 11 -54z" />
    <glyph glyph-name="six" unicode="6" horiz-adv-x="545" 
d="M504 222c0 -132 -119 -230 -279 -230c-123 0 -209 69 -209 174c0 163 107 313 374 398c30 9 51 14 63 14c-310 -141 -314 -163 -349 -374c0 -88 96 -164 195 -164c75 0 117 44 117 122c0 89 -32 134 -95 134c-55 0 -105 -38 -105 -82c-13 -9 -40 -25 -79 -46
c23 92 152 168 255 168c75 0 112 -38 112 -114z" />
    <glyph glyph-name="seven" unicode="7" horiz-adv-x="540" 
d="M520 576c-184 -220 -218 -292 -264 -559l-100 -55c43 286 92 389 268 558h-304v-40l-104 -56v104c16 23 61 48 87 48h417z" />
    <glyph glyph-name="eight" unicode="8" horiz-adv-x="474" 
d="M432 153c0 -98 -88 -161 -221 -161c-121 0 -203 56 -203 140c0 73 44 119 160 167c-96 82 -120 110 -120 152c0 75 65 125 163 125c100 0 173 -42 173 -118c0 -47 -32 -77 -128 -131c132 -68 176 -110 176 -174zM304 447c-12 48 -18 60 -65 86c-31 18 -57 27 -78 27
s-33 -13 -33 -65c0 -59 38 -112 115 -159c47 31 61 56 61 111zM352 112c0 66 -26 98 -167 176c-56 -16 -97 -67 -97 -126c0 -71 93 -130 178 -130c57 0 86 27 86 80z" />
    <glyph glyph-name="nine" unicode="9" horiz-adv-x="487" 
d="M448 359c0 -152 -161 -343 -323 -381c141 71 235 203 235 333c0 116 -93 225 -192 225c-63 0 -104 -43 -104 -107c0 -101 51 -141 181 -141c-45 -21 -87 -32 -126 -32c-68 0 -111 48 -111 123c0 117 98 197 240 197c119 0 200 -88 200 -217z" />
    <glyph glyph-name="colon" unicode=":" horiz-adv-x="120" 
d="M110 203c-21 -6 -44 -12 -71 -19c-7 3 -12 12 -16 26s-8 23 -13 28l64 20c11 -18 23 -36 36 -55zM115 -3c-20 -7 -44 -14 -71 -21c-7 4 -12 13 -16 28s-8 25 -13 30l64 22z" />
    <glyph glyph-name="semicolon" unicode=";" horiz-adv-x="120" 
d="M108 203c-21 -6 -44 -12 -71 -19c-7 3 -12 12 -16 26s-8 23 -13 28l67 20c11 -19 22 -37 33 -55zM88 29c0 -47 -25 -86 -76 -115c19 37 28 75 28 113c0 7 30 29 39 29c6 0 9 -9 9 -27z" />
    <glyph glyph-name="less" unicode="&#x3c;" horiz-adv-x="256" 
d="M234 417c0 -69 -69 -145 -154 -169c95 -56 138 -100 149 -165l-59 -29c-35 76 -74 113 -170 164c125 64 153 80 171 178l62 30z" />
    <glyph glyph-name="equal" unicode="=" horiz-adv-x="432" 
d="M403 272l-110 -56h-270l110 56h270zM412 160l-110 -56h-270l110 56h270z" />
    <glyph glyph-name="greater" unicode="&#x3e;" horiz-adv-x="258" 
d="M248 262c-138 -69 -157 -82 -174 -178l-63 -30c0 93 89 160 157 178c-93 53 -144 108 -153 165l60 29c33 -70 75 -110 173 -164z" />
    <glyph glyph-name="question" unicode="?" horiz-adv-x="447" 
d="M408 449c0 -63 -26 -84 -142 -172c-33 -31 -50 -66 -50 -106c0 -23 3 -37 8 -42l-80 -49v91c0 33 10 43 142 149c33 31 50 61 50 92c0 72 -62 132 -136 132c-68 0 -112 -41 -112 -104l-88 -56c0 93 164 192 282 192c78 0 126 -48 126 -127zM224 8l-80 -46v72l80 46v-72z
" />
    <glyph glyph-name="at" unicode="@" horiz-adv-x="595" 
d="M544 187c0 -38 -16 -57 -67 -79c-31 -13 -57 -20 -78 -20c-34 0 -55 21 -63 64c-26 -33 -111 -64 -169 -64s-87 26 -87 78c0 66 104 122 222 122c27 0 46 -5 55 -16c22 0 28 3 38 16c-3 -5 -4 -13 -4 -24c0 -54 43 -128 78 -128c21 0 35 20 35 48c0 93 -83 152 -214 152
c-120 0 -243 -73 -252 -144c-4 -32 -6 -53 -6 -62c0 -76 74 -114 221 -114c86 0 162 13 228 40c-13 -11 -34 -28 -63 -49c-70 -10 -128 -15 -173 -15c-163 0 -245 53 -245 160c0 121 125 208 296 208c149 0 248 -69 248 -173zM336 156l-30 83c-32 11 -60 17 -85 17
c-35 0 -53 -13 -53 -39c0 -65 23 -97 70 -97c30 0 63 12 98 36z" />
    <glyph glyph-name="A" unicode="A" horiz-adv-x="765" 
d="M751 56c-32 -43 -69 -64 -110 -64c-58 0 -120 48 -187 144c-179 -21 -314 -63 -405 -127c-14 -10 -32 -20 -53 -31c1 6 17 30 48 73c94 126 137 242 137 367c0 30 -8 95 -9 95c0 6 26 27 77 65c211 -353 368 -530 471 -530c13 0 24 3 31 8zM416 167l-136 185
c-25 -76 -77 -167 -157 -272c115 48 153 57 293 87z" />
    <glyph glyph-name="B" unicode="B" horiz-adv-x="621" 
d="M608 192c0 -31 -12 -62 -37 -95c-61 -81 -147 -121 -257 -121c-119 0 -250 58 -250 88v345c0 11 -10 18 -72 47c39 20 42 22 159 104c6 0 9 -19 9 -56c106 48 191 72 256 72c60 0 84 -12 115 -60c19 -29 29 -55 29 -78c0 -48 -69 -118 -116 -118
c109 -18 164 -61 164 -128zM464 392c0 83 -71 128 -201 128c-69 0 -103 -19 -103 -56v-168l106 11c37 3 70 5 101 5c65 0 97 27 97 80zM520 110c0 97 -134 170 -291 170c-46 0 -69 -5 -69 -16v-138c0 -39 148 -94 254 -94c77 0 106 22 106 78z" />
    <glyph glyph-name="C" unicode="C" horiz-adv-x="681" 
d="M675 522l-124 -66c-103 48 -190 72 -260 72c-119 0 -179 -70 -179 -209c0 -150 159 -271 352 -271c61 0 114 16 160 48c-94 -69 -190 -104 -288 -104c-187 0 -336 163 -336 301c0 191 227 283 407 283c89 0 178 -18 268 -54z" />
    <glyph glyph-name="D" unicode="D" horiz-adv-x="832" 
d="M816 277c0 -156 -156 -285 -340 -285c-249 0 -313 39 -313 192c0 51 12 145 37 282c-103 0 -153 21 -200 83l108 75l4 -6c-3 -1 -4 -4 -4 -9c0 -10 28 -26 85 -48c34 -13 104 -22 209 -26c264 -10 293 -14 342 -77c48 -62 72 -122 72 -181zM728 249
c0 171 -194 211 -445 211c-18 -52 -27 -106 -27 -163c0 -44 6 -90 19 -139c18 -68 116 -118 223 -118c153 0 230 70 230 209z" />
    <glyph glyph-name="E" unicode="E" horiz-adv-x="750" 
d="M750 376c-46 -43 -124 -80 -170 -80h-492c0 -71 28 -116 146 -195c53 -35 111 -53 174 -53c58 0 116 16 174 48c-89 -89 -153 -120 -247 -120c-158 0 -335 144 -335 279c0 174 179 321 401 321c74 0 148 -15 223 -44l-72 -68c-101 37 -187 56 -259 56
c-87 0 -141 -18 -164 -55c-22 -37 -36 -74 -41 -113h542c34 0 74 8 120 24z" />
    <glyph glyph-name="F" unicode="F" horiz-adv-x="753" 
d="M804 512l-120 -64c-83 48 -168 72 -254 72c-78 0 -152 -20 -222 -61v-363h550l-111 -56h-439v-205l-104 -89v658c0 38 -38 58 -81 58h-23c97 76 157 114 181 114c16 0 25 -12 27 -36v-52c129 59 247 88 353 88c96 0 177 -21 243 -64z" />
    <glyph glyph-name="G" unicode="G" horiz-adv-x="745" 
d="M694 502l-93 -70c-112 59 -209 88 -291 88c-125 0 -206 -75 -206 -194c0 -95 47 -165 150 -224c63 -36 122 -54 177 -54c48 0 91 16 129 48v112l104 48v-229c0 -67 -37 -112 -153 -185c35 46 48 107 48 222c-55 -48 -126 -72 -214 -72c-188 0 -345 123 -345 274
c0 165 198 310 423 310c95 0 185 -25 271 -74z" />
    <glyph glyph-name="H" unicode="H" horiz-adv-x="773" 
d="M736 257c0 -111 -86 -212 -248 -297c90 47 144 136 144 236c0 136 -98 252 -229 252c-68 0 -141 -27 -219 -82v-321l-104 -99v459c0 54 -17 75 -80 96c91 63 133 91 155 91c19 0 29 -16 29 -48v-168c142 93 226 128 316 128c89 0 138 -36 185 -105c34 -50 51 -97 51 -142
z" />
    <glyph glyph-name="I" unicode="I" horiz-adv-x="260" 
d="M192 45l-104 -83v420c0 39 -24 58 -72 58c47 68 124 136 153 136c15 0 23 -12 23 -35v-496z" />
    <glyph glyph-name="J" unicode="J" horiz-adv-x="260" 
d="M192 -78c0 -107 -78 -208 -172 -248c43 66 68 116 68 190v517c0 39 -24 59 -72 59c47 68 124 136 153 136c15 0 23 -12 23 -36v-618z" />
    <glyph glyph-name="K" unicode="K" horiz-adv-x="700" 
d="M710 56c-43 -53 -91 -80 -142 -80c-57 0 -191 83 -400 248v-197l-104 -65v471c0 47 -16 68 -64 81c96 59 117 70 140 70c19 0 28 -11 28 -32v-304c118 77 160 124 160 177c0 27 -16 50 -48 69l108 66c13 -16 20 -35 20 -57c0 -66 -38 -121 -152 -216
c280 -208 356 -255 399 -255c13 0 32 8 55 24z" />
    <glyph glyph-name="L" unicode="L" horiz-adv-x="576" 
d="M567 64c0 -12 -53 -51 -159 -118c21 17 32 31 32 40s-12 14 -35 14h-347l30 28v381c0 51 -23 67 -88 76c75 61 129 91 162 91c20 0 30 -12 30 -37v-467h358c11 0 17 -3 17 -8z" />
    <glyph glyph-name="M" unicode="M" horiz-adv-x="1265" 
d="M1240 261c0 -132 -81 -230 -258 -315c92 76 138 158 138 247c0 93 -61 223 -139 274c-37 25 -79 37 -126 37c-57 0 -115 -20 -175 -59v-396l-104 -89v459c-87 74 -152 101 -243 101c-191 0 -229 -125 -229 -207c0 -100 43 -205 106 -259l-92 -86
c-79 81 -118 167 -118 256c0 238 237 352 425 352c96 0 181 -27 255 -80c127 43 224 64 291 64c156 0 269 -128 269 -299z" />
    <glyph glyph-name="N" unicode="N" horiz-adv-x="832" 
d="M760 108c-27 -49 -56 -93 -86 -132c-94 100 -186 168 -275 205c-84 34 -190 103 -303 195v-241c0 -47 21 -71 64 -71l8 8l-5 -8h-3c-61 -66 -85 -88 -105 -88c-15 0 -23 17 -23 52v424l-32 38c30 28 59 63 86 104c97 -157 139 -188 334 -300l276 -158v303
c0 33 -11 49 -32 49c-14 0 -25 -3 -32 -10c0 33 77 114 109 114c13 0 19 -10 19 -31v-453z" />
    <glyph glyph-name="O" unicode="O" horiz-adv-x="684" 
d="M640 330c0 -190 -181 -354 -388 -354c-148 0 -252 109 -252 262c0 187 176 338 386 338c157 0 254 -94 254 -246zM544 228c0 170 -116 300 -269 300c-114 0 -171 -82 -171 -245c0 -127 127 -243 263 -243c109 0 177 73 177 188z" />
    <glyph glyph-name="P" unicode="P" horiz-adv-x="712" 
d="M680 301c0 -167 -175 -317 -359 -317c-47 0 -93 13 -137 40v-136l-104 -70v550c0 52 -20 66 -80 66c81 84 132 126 153 127c21 -10 23 -12 31 -73c60 56 165 96 254 96c118 0 191 -50 220 -151c15 -51 22 -95 22 -132zM592 233c0 166 -112 295 -259 295
c-69 0 -149 -29 -149 -66v-344c0 -48 121 -78 208 -78c133 0 200 64 200 193z" />
    <glyph glyph-name="Q" unicode="Q" horiz-adv-x="684" 
d="M831 -56c-86 -59 -164 -88 -235 -88c-30 0 -69 24 -118 72c-72 71 -98 72 -142 72c-30 -16 -63 -24 -99 -24c-139 0 -237 110 -237 268c0 198 172 348 397 348c154 0 259 -111 259 -271c0 -123 -84 -239 -213 -287c11 4 22 6 31 6c18 0 41 -10 70 -29
c102 -69 126 -83 181 -83c33 0 69 5 106 16zM552 250c0 128 -71 258 -159 275c-38 7 -71 11 -98 11c-132 0 -191 -76 -191 -247c0 -130 127 -249 266 -249c114 0 182 79 182 210z" />
    <glyph glyph-name="R" unicode="R" horiz-adv-x="792" 
d="M784 80c-65 -59 -131 -88 -198 -88c-81 0 -172 36 -370 146c8 0 30 6 67 19c99 34 149 90 149 167c0 110 -75 196 -173 196c-40 0 -75 -18 -75 -40v-582l-104 -64v585c0 39 -18 58 -53 58c-11 0 -20 -1 -27 -4c75 58 129 87 160 87c21 0 22 -7 24 -40
c69 37 130 56 184 56c100 0 168 -72 168 -178c0 -94 -69 -177 -184 -223c143 -85 244 -127 304 -127c47 0 89 11 128 32z" />
    <glyph glyph-name="S" unicode="S" horiz-adv-x="620" 
d="M592 184c0 -118 -136 -208 -308 -208c-114 0 -209 40 -284 119c33 19 67 38 102 57c52 -67 168 -120 267 -120c101 0 159 50 159 141c0 39 -39 68 -118 88c-73 17 -147 33 -220 49c-79 24 -118 59 -118 104c0 103 106 170 269 170c91 0 167 -19 229 -56l-106 -64
c-66 53 -128 80 -186 80c-61 0 -102 -32 -102 -79c0 -54 44 -81 178 -108c191 -38 238 -73 238 -173z" />
    <glyph glyph-name="T" unicode="T" horiz-adv-x="900" 
d="M904 576c-77 -82 -122 -92 -296 -112c-31 0 -80 8 -147 24c-153 -49 -229 -114 -229 -195c0 -118 168 -245 333 -245c94 0 186 35 275 104c-89 -117 -209 -176 -361 -176c-204 0 -351 103 -351 257c0 108 96 196 289 263c-65 11 -120 16 -163 16c-93 0 -178 -11 -254 -34
c79 76 171 114 276 114c62 0 132 -9 211 -28s137 -28 175 -28c67 0 147 13 242 40z" />
    <glyph glyph-name="U" unicode="U" horiz-adv-x="653" 
d="M616 63l-104 -101v120c-84 -65 -158 -98 -222 -98c-117 0 -226 83 -226 190v255c0 42 -13 54 -64 64c68 55 117 83 146 83c15 0 22 -9 22 -27v-311c0 -79 39 -132 116 -158c47 -16 86 -24 115 -24c48 0 86 17 113 50v333c0 36 -15 49 -56 49c66 59 112 88 139 88
c14 0 21 -9 21 -26v-487z" />
    <glyph glyph-name="V" unicode="V" horiz-adv-x="824" 
d="M800 511c0 -127 -161 -352 -392 -549c-155 322 -300 539 -361 539c-12 0 -28 -4 -47 -13c49 59 91 88 124 88c44 0 162 -170 354 -510c140 121 210 233 210 334c0 64 -34 104 -90 104c-12 0 -25 -5 -38 -16c64 78 98 104 170 104c62 -15 70 -19 70 -81z" />
    <glyph glyph-name="W" unicode="W" horiz-adv-x="1186" 
d="M1160 504c0 -127 -159 -350 -387 -542c-169 345 -299 539 -361 539c-12 0 -28 -4 -47 -13c62 66 89 88 127 88c46 0 141 -137 350 -510c75 65 214 207 214 349c0 65 -26 97 -77 97c-17 0 -35 -8 -54 -24c57 80 89 104 159 104c67 -17 76 -20 76 -88zM615 196l-207 -234
c-153 326 -300 550 -361 550c-12 0 -28 -8 -47 -24c49 59 90 88 123 88c47 0 165 -171 353 -513l127 146z" />
    <glyph glyph-name="X" unicode="X" horiz-adv-x="796" 
d="M787 123c-67 -93 -121 -139 -161 -139c-26 0 -53 14 -80 41l-235 235c-101 -65 -151 -116 -151 -151c0 -15 8 -28 24 -37l-91 -94c-9 12 -13 26 -13 41c0 69 78 158 222 250l-191 191c-8 8 -21 12 -39 12c-23 0 -47 -11 -72 -32c57 102 79 136 109 136c21 0 41 -9 58 -26
l218 -218c101 77 151 131 151 162c0 18 -19 27 -56 27c45 58 75 87 88 87c27 0 40 -9 40 -28c0 -48 -102 -164 -214 -257l227 -227c16 -16 36 -24 61 -24c34 0 69 17 105 51z" />
    <glyph glyph-name="Y" unicode="Y" horiz-adv-x="812" 
d="M792 469c0 -74 -34 -117 -308 -424c-72 -85 -108 -149 -108 -194c0 -47 32 -81 96 -104l-145 -105c-26 31 -39 67 -39 110c0 88 48 186 140 286l-308 443c-7 9 -28 14 -63 14c-24 0 -43 -2 -57 -7c55 69 100 104 135 104c23 0 45 -14 64 -42l301 -434
c109 102 188 223 188 292c0 64 -56 96 -168 96c72 48 129 72 171 72c56 0 101 -47 101 -107z" />
    <glyph glyph-name="Z" unicode="Z" horiz-adv-x="815" 
d="M804 136c-112 -107 -224 -160 -337 -160c-35 0 -84 9 -147 27c-62 18 -111 27 -147 27c-20 0 -78 -7 -173 -22c43 21 76 44 100 68l382 382l-93 8c-19 1 -51 8 -96 21c-41 11 -73 17 -98 17c-47 0 -96 -17 -147 -52c102 92 189 124 333 124c23 0 57 -5 101 -14
c45 -9 78 -13 100 -13c36 0 86 9 150 27c-77 -43 -133 -81 -167 -115l-376 -376c69 13 124 19 166 19c25 0 65 -7 120 -20c56 -13 98 -20 126 -20c69 0 136 24 203 72z" />
    <glyph glyph-name="bracketleft" unicode="[" horiz-adv-x="276" 
d="M240 8l-88 -32h-128v553c14 26 71 63 96 63h120l-88 -40l-24 8v-552h112z" />
    <glyph glyph-name="backslash" unicode="\" horiz-adv-x="300" 
d="M284 -8h-68l-218 584l69 -1z" />
    <glyph glyph-name="bracketright" unicode="]" horiz-adv-x="276" 
d="M240 39c0 -19 -73 -63 -96 -63h-120l91 40l29 -8v552h-120l88 32h128v-553z" />
    <glyph glyph-name="asciicircum" unicode="^" horiz-adv-x="400" 
d="M311 329l-40 -35c-21 10 -51 33 -91 68c-8 -14 -32 -37 -73 -68l-11 9c74 63 89 78 104 107c36 -40 73 -67 111 -81z" />
    <glyph glyph-name="underscore" unicode="_" horiz-adv-x="460" 
d="M570 -16l-110 -56h-460l110 56h460z" />
    <glyph glyph-name="grave" unicode="`" horiz-adv-x="300" 
d="M233 294c-113 20 -151 41 -174 100c0 11 27 28 41 28c3 0 4 -1 5 -4c17 -53 45 -80 128 -124z" />
    <glyph glyph-name="a" unicode="a" horiz-adv-x="559" 
d="M608 56c-71 -37 -129 -56 -176 -56c-54 0 -80 23 -97 88c-37 -54 -128 -96 -206 -96s-121 42 -121 117c0 90 119 163 261 163c47 0 48 0 89 -29c7 0 20 4 39 13v-25c0 -31 10 -68 29 -113c21 -47 56 -70 105 -70c13 0 39 3 77 8zM338 94l-38 106c-4 9 -81 24 -112 24
c-51 0 -76 -19 -76 -58c0 -89 31 -134 93 -134c40 0 84 21 133 62z" />
    <glyph glyph-name="b" unicode="b" horiz-adv-x="430" 
d="M416 199c0 -45 -30 -93 -90 -143c-64 -53 -114 -80 -151 -80c-36 0 -119 65 -119 99v262c0 67 -10 78 -80 152c0 9 2 11 87 73c11 9 23 14 36 14c25 0 37 -25 37 -76v-276c64 48 121 72 171 72c60 0 109 -43 109 -97zM336 139c0 37 -19 93 -115 93c-46 0 -85 -16 -85 -40
v-63c0 -36 74 -81 128 -81c48 0 72 30 72 91z" />
    <glyph glyph-name="c" unicode="c" horiz-adv-x="428" 
d="M390 243c-50 -35 -82 -52 -97 -52c-27 17 -57 25 -101 25c-69 0 -104 -18 -104 -55c0 -81 38 -121 115 -121c33 0 63 7 173 40c-2 -19 -147 -104 -248 -104c-85 0 -128 51 -128 153c0 62 171 143 297 143c41 0 72 -10 93 -29z" />
    <glyph glyph-name="d" unicode="d" horiz-adv-x="496" 
d="M502 48c-43 -37 -81 -56 -113 -56c-33 0 -56 21 -69 64c-52 -31 -138 -56 -197 -56c-82 0 -123 32 -123 97c0 81 36 134 109 157c37 12 107 18 211 18v110c0 45 -5 52 -72 120c19 28 87 74 112 74c27 0 40 -28 40 -84v-346c0 -69 26 -89 98 -89zM320 66v126
c-70 32 -123 48 -158 48c-53 0 -82 -46 -82 -101c0 -65 41 -107 106 -107c49 0 134 27 134 34z" />
    <glyph glyph-name="e" unicode="e" horiz-adv-x="419" 
d="M392 206l-288 -75c1 -14 6 -34 15 -60c10 -26 44 -39 103 -39c39 0 87 8 144 24c-64 -55 -66 -57 -114 -69c-28 -7 -54 -11 -77 -11c-69 0 -175 20 -175 121c0 115 105 175 227 175c64 0 114 -14 151 -43zM264 189c0 24 -40 43 -76 43c-55 0 -72 -18 -85 -85z" />
    <glyph glyph-name="f" unicode="f" horiz-adv-x="459" 
d="M557 554c0 -28 -51 -90 -84 -90c-117 43 -130 48 -169 48c-65 0 -104 -33 -104 -88v-152h250l-81 -40h-169v-513l-80 -77v590h-120l48 40h72v137c0 61 44 107 131 139c65 24 134 36 207 36c66 0 99 -10 99 -30z" />
    <glyph glyph-name="g" unicode="g" horiz-adv-x="406" 
d="M360 -156c0 -109 -119 -218 -218 -218c102 53 138 104 138 194v180h-137c-104 0 -143 35 -143 127c0 95 90 145 192 145c53 0 97 -11 131 -34c21 15 25 18 29 18c5 0 8 -7 8 -20v-392zM280 48v149c0 34 -22 51 -66 51c-51 0 -112 -33 -120 -67c-4 -19 -6 -36 -6 -50
c0 -66 40 -99 120 -99c48 0 72 5 72 16z" />
    <glyph glyph-name="h" unicode="h" horiz-adv-x="499" 
d="M472 151c0 -54 -27 -91 -117 -159c14 34 21 63 21 86c0 69 -80 146 -151 146c-32 0 -64 -15 -97 -46c0 -71 -2 -111 -5 -121c-5 -14 -30 -40 -73 -79l-6 3c3 20 4 36 4 48v303c0 50 -7 85 -22 104c-11 11 -28 28 -50 51c1 5 88 89 124 89c19 0 28 -19 28 -58v-316
c79 57 137 86 174 86c87 0 170 -66 170 -137z" />
    <glyph glyph-name="i" unicode="i" horiz-adv-x="245" 
d="M200 384c-15 -29 -96 -90 -122 -90c-6 0 -47 21 -47 54c0 17 48 62 93 62c3 -23 13 -34 31 -34c5 0 18 3 39 10zM235 56c-45 -43 -86 -64 -123 -64s-64 23 -64 57c0 12 4 29 12 52s12 41 12 53c0 24 -13 42 -40 53c43 35 74 52 91 52c16 0 37 -46 37 -81
c0 -13 -4 -30 -12 -53c-8 -22 -12 -37 -12 -46c0 -21 12 -31 37 -31c13 0 32 3 57 9z" />
    <glyph glyph-name="j" unicode="j" horiz-adv-x="245" 
d="M192 392c-12 -29 -89 -98 -116 -98c-5 0 -45 23 -45 57c0 20 35 49 47 57c1 1 16 6 43 16c1 -27 11 -40 28 -40c5 0 18 3 37 10zM176 -132c0 -87 -51 -147 -187 -223c56 33 107 118 107 179v280c0 43 -19 76 -56 97c1 12 83 63 97 63c22 0 39 -26 39 -55v-341z" />
    <glyph glyph-name="k" unicode="k" horiz-adv-x="410" 
d="M417 48c-39 -37 -76 -56 -112 -56c-56 0 -109 37 -159 112l-26 -14v-37c-73 -50 -74 -51 -80 -53v307c0 84 -6 96 -64 181c0 9 9 16 53 45c39 36 48 43 66 43c17 0 25 -17 25 -52v-420c112 68 128 84 128 101c0 14 -7 22 -40 37c22 16 47 31 72 47c24 0 48 -21 48 -42
c0 -13 -7 -25 -20 -34l-76 -54l83 -82c24 -24 49 -36 75 -36c11 0 20 2 27 7z" />
    <glyph glyph-name="l" unicode="l" horiz-adv-x="403" 
d="M425 104c-155 -91 -197 -112 -276 -112c-71 0 -117 52 -117 124v222c0 83 -4 88 -64 162c1 8 20 20 61 44c31 28 37 32 52 32c21 0 31 -26 31 -77v-309c0 -79 52 -126 137 -126c51 0 109 13 176 40z" />
    <glyph glyph-name="m" unicode="m" horiz-adv-x="760" 
d="M728 161c0 -79 -68 -150 -160 -169c37 33 56 69 56 108c0 69 -52 124 -116 124c-27 0 -57 -11 -88 -32c8 -24 12 -48 12 -71c0 -25 -6 -51 -19 -79l-110 -64c17 29 25 60 25 93c0 86 -43 153 -99 153c-25 0 -54 -13 -85 -38c11 -24 16 -49 16 -74s-4 -49 -13 -72
l-111 -62c13 32 20 64 20 96c0 49 -5 56 -56 129c41 46 66 69 76 69c18 0 39 -21 62 -64c67 53 125 80 174 80c50 0 75 -19 99 -72c81 48 150 72 205 72c75 0 112 -42 112 -127z" />
    <glyph glyph-name="n" unicode="n" horiz-adv-x="502" 
d="M464 158c0 -87 -61 -154 -152 -166c32 30 48 66 48 107c0 69 -51 125 -115 125c-29 0 -60 -11 -93 -32c5 -23 8 -46 8 -71c0 -24 -3 -47 -8 -68l-116 -75c13 32 20 64 20 97c0 54 -16 90 -56 130c53 45 82 67 87 67c17 0 36 -21 57 -64c65 53 133 80 202 80
c79 0 118 -43 118 -130z" />
    <glyph glyph-name="o" unicode="o" horiz-adv-x="465" 
d="M432 187c0 -102 -159 -211 -274 -211c-68 0 -158 39 -158 121c0 101 145 191 296 191c91 0 136 -34 136 -101zM328 130c0 72 -50 126 -118 126c-59 0 -106 -53 -106 -118c0 -62 66 -114 146 -114c47 0 78 43 78 106z" />
    <glyph glyph-name="p" unicode="p" horiz-adv-x="530" 
d="M504 148c0 -57 -45 -101 -135 -134c-35 -13 -104 -29 -209 -49v-269l-80 -70v544c0 33 -27 50 -80 50c75 35 113 52 115 52c15 0 32 -17 49 -50c42 27 132 50 195 50c97 0 145 -41 145 -124zM400 117c0 58 -49 123 -120 123c-47 0 -120 -32 -120 -56v-134
c0 -26 69 -42 120 -42c93 0 120 29 120 109z" />
    <glyph glyph-name="q" unicode="q" horiz-adv-x="434" 
d="M411 -280c-45 -32 -75 -48 -90 -48c-17 0 -25 11 -25 34v326c-55 -27 -107 -40 -156 -40c-72 0 -140 58 -140 122c0 87 123 158 235 158c41 0 78 -8 109 -24c6 0 14 3 24 9l8 -1v-486c0 -32 11 -49 33 -50h2zM296 80v109c0 39 -28 59 -85 59c-77 0 -115 -34 -115 -103
c0 -68 44 -113 112 -113c51 0 88 20 88 48z" />
    <glyph glyph-name="r" unicode="r" horiz-adv-x="513" 
d="M502 281c-32 -81 -79 -121 -142 -121c-42 0 -123 52 -123 60c-16 0 -37 -19 -37 -33v-165l-80 -60v178c0 35 -16 52 -48 52c-27 0 -51 -5 -72 -16l130 100c11 9 24 13 39 13c19 0 31 -20 35 -59c41 37 83 55 124 55c12 0 28 -6 49 -17s37 -16 48 -16c13 0 38 10 77 29z
" />
    <glyph glyph-name="s" unicode="s" horiz-adv-x="392" 
d="M360 106c0 -46 -163 -122 -263 -122c-39 0 -72 9 -97 26l83 54c11 -22 59 -40 106 -40c45 0 67 14 67 43c0 17 -20 30 -60 39c-143 20 -172 26 -172 43c0 3 5 15 15 37c26 55 122 102 206 102c40 0 78 -7 115 -22l-83 -50c-23 21 -60 32 -112 32c-35 0 -53 -8 -53 -24
c0 -30 21 -35 184 -70c43 -12 64 -28 64 -48z" />
    <glyph glyph-name="t" unicode="t" horiz-adv-x="482" 
d="M474 286c-66 -48 -130 -72 -191 -72c-1 0 -17 1 -50 4c-20 -25 -30 -53 -30 -85c0 -63 41 -102 105 -102c62 0 137 34 142 39c-48 -53 -146 -95 -226 -95c-78 0 -125 44 -125 116c0 48 15 75 74 134c-16 3 -43 5 -81 5c-39 0 -75 -5 -108 -16c82 59 145 72 183 72
c12 -1 206 -16 207 -16c39 0 72 5 100 16z" />
    <glyph glyph-name="u" unicode="u" horiz-adv-x="524" 
d="M520 64c-60 -48 -106 -72 -137 -72c-32 0 -55 30 -55 72c-120 -48 -188 -72 -203 -72c-65 0 -77 30 -77 161c0 41 -11 62 -34 62c-5 0 -9 -1 -14 -2c49 39 83 59 103 59c17 0 25 -17 25 -52v-73c0 -66 23 -99 69 -99c42 0 86 11 131 34v121c0 19 -5 28 -16 28
c-3 0 -11 -1 -26 -3c41 29 72 44 93 44s31 -19 31 -56c-3 -58 -3 -71 -3 -85c0 -55 18 -83 55 -83c17 0 37 5 58 16z" />
    <glyph glyph-name="v" unicode="v" horiz-adv-x="434" 
d="M430 266c0 -20 -69 -122 -207 -305c-63 181 -118 255 -188 255c-12 0 -24 -2 -35 -7c46 42 82 63 107 63c70 0 109 -49 167 -216l85 113c7 10 11 20 11 31c0 17 -12 26 -36 26l82 62c9 -6 14 -13 14 -22z" />
    <glyph glyph-name="w" unicode="w" horiz-adv-x="652" 
d="M630 269c0 -32 -67 -129 -200 -291c-32 102 -38 121 -59 163c-31 -25 -36 -31 -101 -107c-11 -13 -28 -31 -51 -56c-56 171 -112 240 -189 240c-11 0 -21 -2 -30 -6c42 41 75 61 100 61c68 0 112 -52 178 -209c47 56 47 57 87 89c-41 56 -63 71 -103 71
c31 32 54 48 70 48c60 0 95 -48 152 -208c57 68 86 115 86 141c0 13 -11 19 -32 19l82 64c7 -5 10 -11 10 -19z" />
    <glyph glyph-name="x" unicode="x" horiz-adv-x="535" 
d="M535 56c-46 -43 -134 -80 -191 -80c-25 0 -44 7 -58 21l-80 79l-170 -169c-45 -45 -91 -67 -140 -67c-21 0 -41 7 -58 20l77 76c15 -21 34 -32 57 -32c26 0 50 11 73 34l150 150l-86 86c-12 12 -26 18 -41 18c-23 0 -47 -8 -73 -24c25 25 118 88 135 88
c20 0 49 -22 127 -106l91 91c21 21 46 31 76 31c29 0 47 -9 55 -28l-59 -60c-13 23 -31 34 -56 34s-36 -8 -98 -77l91 -91c12 -12 34 -18 66 -18c37 0 75 8 112 24z" />
    <glyph glyph-name="y" unicode="y" horiz-adv-x="532" 
d="M529 284l-92 -76c-10 16 -22 24 -36 24c-50 0 -145 -96 -145 -129v-368l-80 -93v394c0 67 -80 156 -146 156c-14 0 -25 -3 -33 -8c71 71 94 89 117 89c45 0 83 -39 142 -145c94 126 165 160 250 160c5 0 12 -1 23 -4z" />
    <glyph glyph-name="z" unicode="z" horiz-adv-x="557" 
d="M552 80c-81 -69 -164 -104 -247 -104c-75 3 -200 8 -201 8c-29 0 -58 -3 -87 -8c73 51 182 129 327 232c-28 -11 -58 -16 -89 -16c-1 0 -134 7 -141 8c-30 0 -103 -25 -117 -40c63 75 138 112 224 112c9 -1 156 -16 157 -16c45 0 86 11 123 34
c-87 -61 -201 -145 -344 -250h210c61 0 123 13 185 40z" />
    <glyph glyph-name="braceleft" unicode="{" horiz-adv-x="325" 
d="M330 -8c-41 -11 -75 -16 -104 -16c-87 0 -146 37 -146 96c0 15 5 35 16 62s16 46 16 59c0 46 -28 64 -112 70c75 31 112 67 112 108c0 12 -5 29 -16 52s-16 40 -16 52c0 68 78 117 192 117c-69 -19 -104 -48 -104 -87l16 -100c0 -39 -15 -53 -80 -110
c65 -14 80 -26 80 -64c0 -13 -4 -33 -12 -58s-12 -45 -12 -59c0 -80 80 -122 170 -122z" />
    <glyph glyph-name="bar" unicode="|" horiz-adv-x="147" 
d="M80 -8h-80v600h80v-600z" />
    <glyph glyph-name="braceright" unicode="}" horiz-adv-x="248" 
d="M248 325c-59 -35 -88 -73 -88 -116c0 -17 7 -41 20 -72s20 -53 20 -68c0 -58 -49 -81 -190 -91c73 21 110 51 110 90c0 11 -4 28 -12 49s-12 38 -12 49c0 46 21 85 64 116c-37 14 -56 30 -56 49c39 122 40 126 40 148c0 75 -33 113 -99 113c-10 0 -22 -5 -37 -16
c11 17 71 40 103 40c70 0 105 -37 105 -111c0 -49 -4 -57 -40 -135c0 -19 24 -34 72 -45z" />
    <glyph glyph-name="asciitilde" unicode="~" horiz-adv-x="478" 
d="M407 392c-27 -55 -62 -82 -106 -82c-15 0 -37 4 -65 13s-50 13 -65 13c-37 0 -71 -9 -100 -26c31 55 68 82 112 82c16 0 39 -4 70 -13s54 -13 70 -13c32 0 60 9 84 26z" />
    <glyph glyph-name="Adieresis" unicode="&#xc4;" horiz-adv-x="765" 
d="M448 656c-7 -20 -31 -59 -107 -97c-20 0 -46 34 -46 59c0 15 19 34 58 59l26 5c0 -23 9 -34 26 -34c5 0 17 3 37 10zM232 656c-13 -32 -53 -71 -106 -97c-26 0 -47 41 -47 59c0 15 20 34 59 59l25 5c0 -23 8 -34 25 -34c5 0 18 3 38 10zM760 56c-32 -43 -69 -64 -111 -64
c-59 0 -121 48 -188 144c-180 -21 -316 -63 -408 -127c-14 -10 -32 -20 -53 -31c1 6 17 30 49 73c94 125 137 239 137 366c0 30 -8 95 -9 95c0 4 26 26 78 64c212 -352 370 -528 474 -528c13 0 24 3 31 8zM420 167l-136 185c-25 -76 -77 -167 -157 -272
c115 48 153 57 293 87z" />
    <glyph glyph-name="Aring" unicode="&#xc5;" horiz-adv-x="765" 
d="M232 648c0 -39 -31 -72 -67 -72c-38 0 -69 32 -69 71c0 37 30 65 69 65c38 0 67 -28 67 -64zM208 631c0 36 -21 65 -51 65c-20 0 -37 -18 -37 -39c0 -27 27 -65 46 -65c28 0 42 13 42 39zM755 56c-32 -43 -69 -64 -110 -64c-63 0 -116 41 -187 144
c-179 -21 -314 -63 -405 -127c-14 -10 -32 -20 -53 -31c1 6 17 30 48 73c96 131 137 242 137 366c0 30 -8 95 -9 95c0 4 26 26 77 64c211 -352 368 -528 471 -528c13 0 24 3 31 8zM420 167l-135 185c-24 -75 -76 -165 -155 -272c103 44 150 57 290 87z" />
    <glyph glyph-name="Ccedilla" unicode="&#xc7;" horiz-adv-x="684" 
d="M680 523l-124 -67c-104 48 -191 72 -262 72c-121 0 -182 -69 -182 -206c0 -158 189 -266 355 -266c65 0 123 17 172 52c-60 -44 -170 -108 -279 -108c-14 0 -21 -6 -21 -17c0 -13 7 -27 22 -43c15 -17 23 -29 23 -37c0 -26 -36 -39 -109 -39c56 24 61 28 61 46
c0 8 -8 23 -25 44c-16 21 -25 36 -27 43c-159 13 -284 168 -284 297c0 159 180 282 411 282c89 0 178 -18 269 -53z" />
    <glyph glyph-name="Eacute" unicode="&#xc9;" horiz-adv-x="752" 
d="M536 694c-24 -58 -64 -75 -174 -94c68 33 115 71 122 98c5 16 9 24 12 24c10 0 39 -20 40 -28zM750 376c-46 -43 -124 -80 -170 -80h-492c0 -71 28 -116 146 -195c53 -35 111 -53 174 -53c58 0 116 16 174 48c-89 -89 -153 -120 -247 -120c-158 0 -335 144 -335 279
c0 174 179 321 401 321c74 0 148 -15 223 -44l-72 -68c-101 37 -187 56 -259 56c-87 0 -141 -18 -164 -55c-22 -37 -36 -74 -41 -113h542c34 0 74 8 120 24z" />
    <glyph glyph-name="Ntilde" unicode="&#xd1;" horiz-adv-x="795" 
d="M579 656c-27 -53 -62 -80 -106 -80c-15 0 -36 4 -65 12c-28 8 -50 12 -65 12c-36 0 -69 -8 -100 -24c30 53 67 80 112 80c16 0 39 -4 70 -12s54 -12 70 -12c31 0 59 8 84 24zM760 108c-27 -49 -56 -93 -86 -132c-94 100 -186 168 -275 205c-84 34 -190 103 -303 195v-241
c0 -47 21 -71 64 -71l8 8l-5 -8h-3c-61 -66 -85 -88 -105 -88c-15 0 -23 17 -23 52v423l-32 37c30 28 59 63 86 104c91 -150 136 -186 334 -299l276 -157v303c0 33 -11 49 -32 49c-14 0 -25 -3 -32 -10c0 33 77 114 109 114c13 0 19 -10 19 -31v-453z" />
    <glyph glyph-name="Odieresis" unicode="&#xd6;" horiz-adv-x="684" 
d="M584 664c-13 -29 -81 -88 -105 -88l-2 -1c-20 0 -46 34 -46 59c0 15 20 34 59 59c8 1 17 3 26 5c0 -28 9 -42 26 -42c5 0 17 3 36 10zM376 664c-7 -18 -78 -88 -104 -88l-2 -1c-26 0 -47 41 -47 59c0 15 19 34 56 59c7 1 15 3 24 5c0 -28 9 -42 27 -42c5 0 18 3 40 10z
M640 330c0 -190 -181 -354 -388 -354c-148 0 -252 109 -252 262c0 187 176 338 386 338c157 0 254 -94 254 -246zM544 229c0 173 -115 301 -269 301c-111 0 -171 -86 -171 -246c0 -128 127 -244 263 -244c109 0 177 72 177 189z" />
    <glyph glyph-name="Udieresis" unicode="&#xdc;" horiz-adv-x="665" 
d="M552 656c-11 -27 -84 -81 -108 -81c-19 0 -45 29 -45 51c0 19 37 47 83 56c0 -17 10 -26 30 -26c5 0 24 1 34 2c1 0 3 -1 6 -2zM336 656c-11 -24 -85 -81 -107 -81s-46 33 -46 51s38 48 86 56c0 -23 0 -23 67 -26zM616 62l-104 -100v120c-84 -65 -158 -98 -222 -98
c-120 0 -226 89 -226 189v254c0 42 -18 54 -64 63c68 57 117 86 146 86c15 0 22 -9 22 -27v-311c0 -79 39 -132 116 -158c47 -16 86 -24 115 -24c48 0 86 17 113 50v334c0 38 -14 50 -56 50c64 53 110 80 139 80c14 0 21 -9 21 -26v-482z" />
    <glyph glyph-name="aacute" unicode="&#xe1;" horiz-adv-x="559" 
d="M354 389c-24 -58 -63 -75 -174 -93c68 34 115 71 123 97c5 15 8 23 11 23c15 0 28 -9 40 -27zM608 56c-71 -37 -129 -56 -176 -56c-54 0 -80 23 -97 88c-37 -54 -128 -96 -206 -96s-121 42 -121 117c0 90 119 163 261 163c47 0 48 0 89 -29c7 0 20 4 39 13v-25
c0 -31 10 -68 29 -113c21 -47 56 -70 105 -70c13 0 39 3 77 8zM338 94l-38 106c-4 9 -81 24 -112 24c-51 0 -76 -19 -76 -58c0 -89 31 -134 93 -134c40 0 84 21 133 62z" />
    <glyph glyph-name="agrave" unicode="&#xe0;" horiz-adv-x="559" 
d="M295 296c-111 19 -150 37 -174 98c0 11 27 28 41 28c3 0 4 -1 5 -4c17 -52 46 -79 128 -122zM608 56c-71 -37 -129 -56 -176 -56c-53 0 -79 21 -97 80c-36 -48 -128 -88 -206 -88s-121 42 -121 117c0 90 119 163 261 163c47 0 48 0 89 -29c7 0 20 4 39 13v-25
c0 -31 10 -68 29 -113c21 -47 56 -70 105 -70c13 0 39 3 77 8zM338 87l-38 112c-3 8 -83 25 -112 25c-51 0 -76 -19 -76 -58c0 -89 31 -134 93 -134c41 0 85 18 133 55z" />
    <glyph glyph-name="acircumflex" unicode="&#xe2;" horiz-adv-x="559" 
d="M316 333l-40 -29c-23 9 -54 29 -91 58c-9 -13 -33 -32 -73 -58l-11 7c55 41 89 74 104 99c35 -37 72 -63 111 -77zM608 56c-71 -37 -129 -56 -176 -56c-53 0 -79 21 -97 80c-36 -48 -128 -88 -206 -88s-121 42 -121 117c0 90 119 163 261 163c47 0 48 0 89 -29
c7 0 20 4 39 13v-25c0 -31 10 -68 29 -113c21 -47 56 -70 105 -70c13 0 39 3 77 8zM338 87l-38 112c-3 8 -83 25 -112 25c-51 0 -76 -19 -76 -58c0 -89 31 -134 93 -134c41 0 85 18 133 55z" />
    <glyph glyph-name="adieresis" unicode="&#xe4;" horiz-adv-x="559" 
d="M424 384c-13 -29 -81 -88 -105 -88l-2 -1c-26 0 -46 38 -46 55c0 20 36 51 81 60c0 -23 9 -34 27 -34c5 0 18 3 39 10zM208 384c-11 -26 -83 -89 -107 -89c-18 0 -46 34 -46 55c0 20 37 51 84 60c0 -23 8 -34 25 -34c5 0 18 3 38 10zM606 56c-69 -37 -126 -56 -173 -56
c-53 0 -79 21 -97 80c-35 -47 -130 -88 -206 -88c-78 0 -122 42 -122 117c0 94 122 163 260 163c46 0 47 0 88 -29c7 0 20 4 39 13v-25c0 -31 10 -68 29 -113c21 -47 56 -70 105 -70c13 0 39 3 77 8zM336 87l-38 112c-3 8 -83 25 -112 25c-49 0 -74 -19 -74 -58
c0 -89 30 -134 91 -134c41 0 85 18 133 55z" />
    <glyph glyph-name="atilde" unicode="&#xe3;" horiz-adv-x="559" 
d="M405 392c-27 -48 -62 -72 -105 -72l-128 16c-37 0 -70 -5 -99 -16c31 48 68 72 111 72c38 -5 115 -14 138 -16c29 0 56 5 83 16zM606 56c-71 -37 -129 -56 -175 -56c-53 0 -79 21 -97 80c-35 -48 -129 -88 -205 -88c-78 0 -121 42 -121 117c0 94 122 163 260 163
c46 0 47 0 88 -29c7 0 20 4 39 13v-25c0 -31 10 -68 29 -113c21 -47 56 -70 105 -70c13 0 39 3 77 8zM336 87l-38 112c-3 8 -83 25 -112 25c-49 0 -74 -19 -74 -58c0 -89 30 -134 91 -134c41 0 85 18 133 55z" />
    <glyph glyph-name="aring" unicode="&#xe5;" horiz-adv-x="559" 
d="M328 406c0 -53 -39 -94 -86 -94c-50 0 -90 41 -90 92c0 46 41 84 90 84c50 0 86 -35 86 -82zM296 387c0 42 -31 85 -65 85c-28 0 -47 -22 -47 -52c0 -34 32 -84 57 -84c37 0 55 17 55 51zM616 56c-71 -37 -130 -56 -178 -56c-54 0 -80 21 -98 80
c-38 -48 -132 -88 -209 -88c-78 0 -123 43 -123 117c0 91 120 163 264 163c37 0 60 -5 69 -15c10 -9 17 -14 21 -14c7 0 20 4 40 13v-25c0 -31 10 -68 29 -113c21 -47 57 -70 107 -70c9 0 35 3 78 8zM334 87l-38 112c-3 8 -81 25 -110 25c-49 0 -74 -19 -74 -58
c0 -89 30 -134 91 -134c39 0 83 18 131 55z" />
    <glyph glyph-name="ccedilla" unicode="&#xe7;" horiz-adv-x="428" 
d="M402 244c-80 -47 -90 -53 -109 -53c0 1 1 1 2 1c-23 16 -58 24 -106 24c-51 0 -77 -16 -77 -47c0 -81 39 -121 118 -121c25 0 148 21 158 32c-19 -35 -73 -58 -207 -100c-3 -3 -5 -7 -5 -11c0 -1 8 -26 16 -45c0 -16 -27 -28 -80 -36l1 4c26 13 39 25 39 35
c0 8 -4 16 -13 25c-10 10 -10 14 -10 28c-18 1 -42 6 -72 16c-33 11 -49 55 -49 134c0 62 175 142 300 142c43 0 74 -9 94 -28z" />
    <glyph glyph-name="eacute" unicode="&#xe9;" horiz-adv-x="419" 
d="M311 387c-23 -61 -63 -80 -174 -99c67 34 115 75 122 103c5 17 9 25 12 25c8 0 39 -20 40 -29zM392 206l-288 -75c1 -14 6 -34 15 -60c10 -26 44 -39 103 -39c39 0 87 8 144 24c-64 -55 -66 -57 -114 -69c-28 -7 -54 -11 -77 -11c-69 0 -175 20 -175 121
c0 115 105 175 227 175c64 0 114 -14 151 -43zM264 189c0 24 -40 43 -76 43c-55 0 -72 -18 -85 -85z" />
    <glyph glyph-name="egrave" unicode="&#xe8;" horiz-adv-x="419" 
d="M232 296c-111 19 -150 37 -174 98c0 11 27 28 41 28c3 0 4 -1 5 -4c17 -52 46 -79 128 -122zM392 206l-288 -75c1 -14 6 -34 15 -60c10 -26 44 -39 103 -39c39 0 87 8 144 24c-64 -55 -66 -57 -114 -69c-28 -7 -54 -11 -77 -11c-69 0 -175 20 -175 121
c0 115 105 175 227 175c64 0 114 -14 151 -43zM264 189c0 24 -40 43 -76 43c-55 0 -72 -18 -85 -85z" />
    <glyph glyph-name="ecircumflex" unicode="&#xea;" horiz-adv-x="419" 
d="M304 327l-39 -39c-24 12 -55 37 -92 74c-10 -19 -34 -43 -73 -74l-11 15c64 52 88 77 104 107c34 -40 71 -68 111 -83zM392 206l-288 -75c1 -14 6 -34 15 -60c10 -26 44 -39 103 -39c39 0 87 8 144 24c-64 -55 -66 -57 -114 -69c-28 -7 -54 -11 -77 -11
c-69 0 -175 20 -175 121c0 115 105 175 227 175c64 0 114 -14 151 -43zM264 189c0 24 -40 43 -76 43c-55 0 -72 -18 -85 -85z" />
    <glyph glyph-name="edieresis" unicode="&#xeb;" horiz-adv-x="419" 
d="M392 384c-7 -20 -31 -59 -107 -97c-20 0 -46 34 -46 59c0 15 20 34 59 59l25 5c0 -23 9 -34 26 -34c5 0 17 3 37 10zM176 384c-13 -32 -53 -71 -106 -97c-26 0 -47 41 -47 59c0 15 20 34 61 59c8 1 17 3 26 5c0 -23 8 -34 24 -34c5 0 17 3 36 10zM392 206l-288 -75
c1 -14 6 -34 15 -60c10 -26 44 -39 103 -39c39 0 87 8 144 24c-64 -55 -66 -57 -114 -69c-28 -7 -54 -11 -77 -11c-69 0 -175 20 -175 121c0 115 105 175 227 175c64 0 114 -14 151 -43zM264 189c0 24 -40 43 -76 43c-55 0 -72 -18 -85 -85z" />
    <glyph glyph-name="iacute" unicode="&#xed;" horiz-adv-x="245" 
d="M190 389c-24 -58 -63 -75 -174 -93c68 34 115 71 123 97c5 15 8 23 11 23c15 0 28 -9 40 -27zM240 56c-47 -43 -87 -64 -121 -64c-36 0 -63 24 -63 57c0 12 4 29 12 52s12 41 12 53c0 24 -13 42 -40 53c43 35 74 52 91 52c16 0 37 -46 37 -81c0 -13 -4 -30 -12 -53
c-8 -22 -12 -37 -12 -46c0 -21 12 -31 36 -31c12 0 30 3 55 9z" />
    <glyph glyph-name="igrave" unicode="&#xec;" horiz-adv-x="245" 
d="M135 296c-116 20 -152 40 -175 98c0 11 27 28 41 28c3 0 4 -1 5 -4c16 -49 49 -81 129 -122zM248 56c-49 -43 -91 -64 -126 -64c-40 0 -66 23 -66 57c0 12 4 29 12 52s12 41 12 53c0 24 -13 42 -40 53c43 35 74 52 91 52c16 0 37 -46 37 -81c0 -13 -4 -30 -12 -53
c-8 -22 -12 -37 -12 -46c0 -21 13 -31 39 -31c13 0 33 3 60 9z" />
    <glyph glyph-name="icircumflex" unicode="&#xee;" horiz-adv-x="245" 
d="M211 330l-34 -34c-28 13 -59 35 -94 66c-11 -18 -35 -40 -72 -66l-11 9c55 44 89 79 103 105c35 -39 71 -65 108 -80zM240 56c-49 -43 -91 -64 -126 -64s-66 20 -66 59c0 12 4 30 12 54s12 42 12 54c0 25 -13 43 -40 54c44 36 74 54 91 54c18 0 37 -50 37 -84
c0 -13 -4 -31 -12 -54s-12 -39 -12 -49c0 -21 13 -32 39 -32c13 0 33 3 60 9z" />
    <glyph glyph-name="idieresis" unicode="&#xef;" horiz-adv-x="245" 
d="M320 384c-13 -29 -81 -88 -105 -88l-2 -1c-26 0 -46 38 -46 55c0 20 36 51 81 60c0 -23 9 -34 27 -34c5 0 18 3 39 10zM104 384c-11 -26 -83 -89 -107 -89c-20 0 -46 32 -46 55c0 20 37 51 84 60c0 -23 8 -34 25 -34c5 0 18 3 38 10zM242 56c-45 -43 -85 -64 -122 -64
s-64 23 -64 57c0 12 4 29 12 52s12 41 12 53c0 24 -13 42 -40 53c43 35 74 52 91 52c16 0 37 -46 37 -81c0 -13 -4 -30 -12 -53c-8 -22 -12 -37 -12 -46c0 -21 12 -31 36 -31c13 0 32 3 57 9z" />
    <glyph glyph-name="ntilde" unicode="&#xf1;" horiz-adv-x="502" 
d="M405 392c-27 -48 -62 -72 -105 -72l-128 16c-37 0 -70 -5 -99 -16c31 48 67 72 110 72c7 -1 138 -16 139 -16c31 0 58 5 83 16zM464 158c0 -87 -61 -154 -152 -166c32 30 48 66 48 107c0 69 -51 125 -115 125c-29 0 -60 -11 -93 -32c5 -23 8 -46 8 -71
c0 -24 -3 -47 -8 -68l-116 -75c13 32 20 64 20 97c0 54 -16 90 -56 130c53 45 82 67 87 67c17 0 36 -21 57 -64c65 53 133 80 202 80c79 0 118 -43 118 -130z" />
    <glyph glyph-name="oacute" unicode="&#xf3;" horiz-adv-x="465" 
d="M321 389c-24 -58 -63 -75 -174 -93c68 34 115 71 123 97c5 15 8 23 11 23c15 0 28 -9 40 -27zM432 187c0 -102 -159 -211 -274 -211c-68 0 -158 39 -158 121c0 101 145 191 296 191c91 0 136 -34 136 -101zM328 130c0 72 -50 126 -118 126c-59 0 -106 -53 -106 -118
c0 -62 66 -114 146 -114c47 0 78 43 78 106z" />
    <glyph glyph-name="ograve" unicode="&#xf2;" horiz-adv-x="465" 
d="M284 312c-111 19 -150 37 -174 98c0 11 27 28 41 28c3 0 4 -1 5 -4c17 -52 46 -79 128 -122zM432 187c0 -102 -159 -211 -274 -211c-68 0 -158 39 -158 121c0 101 145 191 296 191c91 0 136 -34 136 -101zM328 130c0 72 -50 126 -118 126c-59 0 -106 -53 -106 -118
c0 -62 66 -114 146 -114c47 0 78 43 78 106z" />
    <glyph glyph-name="ocircumflex" unicode="&#xf4;" horiz-adv-x="465" 
d="M307 330l-40 -34c-24 11 -54 33 -91 66c-11 -17 -35 -39 -72 -66l-12 11c60 47 89 76 104 103c35 -39 72 -66 111 -80zM432 187c0 -102 -159 -211 -274 -211c-68 0 -158 39 -158 121c0 101 145 191 296 191c91 0 136 -34 136 -101zM328 130c0 72 -50 126 -118 126
c-59 0 -106 -53 -106 -118c0 -62 66 -114 146 -114c47 0 78 43 78 106z" />
    <glyph glyph-name="odieresis" unicode="&#xf6;" horiz-adv-x="465" 
d="M432 384c-13 -29 -81 -88 -105 -88l-2 -1c-26 0 -46 38 -46 55c0 14 19 32 57 55l25 5c0 -23 9 -34 27 -34c5 0 17 3 38 10zM216 384c-11 -26 -83 -89 -107 -89c-18 0 -46 34 -46 55c0 20 39 51 85 60c0 -23 8 -34 25 -34c5 0 17 3 37 10zM432 187
c0 -102 -159 -211 -274 -211c-68 0 -158 39 -158 121c0 101 145 191 296 191c91 0 136 -34 136 -101zM328 130c0 72 -50 126 -118 126c-59 0 -106 -53 -106 -118c0 -62 66 -114 146 -114c47 0 78 43 78 106z" />
    <glyph glyph-name="otilde" unicode="&#xf5;" horiz-adv-x="465" 
d="M403 392c-27 -48 -62 -72 -105 -72c-1 0 -121 15 -129 16c-38 0 -71 -5 -100 -16c31 48 68 72 112 72c7 -1 138 -16 139 -16c31 0 58 5 83 16zM432 187c0 -102 -159 -211 -274 -211c-68 0 -158 39 -158 121c0 101 145 191 296 191c91 0 136 -34 136 -101zM328 130
c0 72 -50 126 -118 126c-59 0 -106 -53 -106 -118c0 -62 66 -114 146 -114c47 0 78 43 78 106z" />
    <glyph glyph-name="uacute" unicode="&#xfa;" horiz-adv-x="524" 
d="M355 389c-29 -56 -67 -75 -179 -93c63 31 115 69 123 97c5 15 8 23 11 23c7 0 9 -1 45 -27zM520 64c-60 -48 -106 -72 -137 -72c-32 0 -55 30 -55 72c-120 -48 -188 -72 -203 -72c-65 0 -77 30 -77 161c0 41 -11 62 -34 62c-5 0 -9 -1 -14 -2c49 39 83 59 103 59
c17 0 25 -17 25 -52v-73c0 -66 23 -99 69 -99c44 0 88 12 131 35v122c0 15 -3 24 -9 27h-33c40 27 71 40 93 40c21 0 31 -19 31 -56c-3 -58 -3 -71 -3 -85c0 -55 18 -83 55 -83c17 0 37 5 58 16z" />
    <glyph glyph-name="ugrave" unicode="&#xf9;" horiz-adv-x="524" 
d="M284 296c-111 19 -150 37 -174 98c0 11 27 28 41 28c3 0 4 -1 5 -4c17 -52 46 -79 128 -122zM520 64c-60 -48 -106 -72 -137 -72c-32 0 -55 30 -55 72c-120 -48 -188 -72 -203 -72c-65 0 -77 30 -77 161c0 41 -11 62 -34 62c-5 0 -9 -1 -14 -2c49 39 83 59 103 59
c17 0 25 -17 25 -52v-73c0 -66 23 -99 69 -99c42 0 86 11 131 34v121c0 19 -5 28 -16 28c-3 0 -11 -1 -26 -3c41 29 72 44 93 44s31 -19 31 -56c-3 -58 -3 -71 -3 -85c0 -55 18 -83 55 -83c17 0 37 5 58 16z" />
    <glyph glyph-name="ucircumflex" unicode="&#xfb;" horiz-adv-x="524" 
d="M340 330l-40 -34c-24 11 -54 33 -91 66c-10 -17 -34 -39 -73 -66l-11 9c70 58 88 76 104 105c34 -38 71 -65 111 -80zM520 64c-60 -48 -106 -72 -137 -72c-32 0 -55 30 -55 72c-120 -48 -188 -72 -203 -72c-65 0 -77 30 -77 161c0 41 -11 62 -34 62c-5 0 -9 -1 -14 -2
c49 39 83 59 103 59c17 0 25 -17 25 -52v-73c0 -66 23 -99 69 -99c42 0 86 11 131 34v121c0 19 -5 28 -16 28c-3 0 -11 -1 -26 -3c41 29 72 44 93 44s31 -19 31 -56c-3 -58 -3 -71 -3 -85c0 -55 18 -83 55 -83c17 0 37 5 58 16z" />
    <glyph glyph-name="udieresis" unicode="&#xfc;" horiz-adv-x="524" 
d="M432 384c-11 -31 -53 -65 -101 -89c-20 0 -44 30 -44 55c0 19 30 50 74 60c0 -23 9 -34 27 -34c5 0 17 3 38 10zM216 384c-11 -26 -83 -89 -107 -89c-18 0 -46 34 -46 55c0 20 39 51 85 60c0 -23 8 -34 25 -34c5 0 17 3 37 10zM520 64c-60 -48 -106 -72 -137 -72
c-32 0 -55 30 -55 72c-120 -48 -188 -72 -203 -72c-65 0 -77 30 -77 161c0 41 -11 62 -34 62c-5 0 -9 -1 -14 -2c49 39 83 59 103 59c17 0 25 -17 25 -52v-73c0 -66 23 -99 69 -99c42 0 86 11 131 34v121c0 19 -5 28 -16 28c-3 0 -11 -1 -26 -3c41 29 72 44 93 44
s31 -19 31 -56c-3 -58 -3 -71 -3 -85c0 -55 18 -83 55 -83c17 0 37 5 58 16z" />
    <glyph glyph-name="dagger" unicode="&#x2020;" horiz-adv-x="92" 
d="M88 472h-36c8 -38 12 -65 12 -80c0 -41 -5 -54 -32 -98v178h-32v16h32v88h24v-88h32v-16z" />
    <glyph glyph-name="degree" unicode="&#xb0;" horiz-adv-x="354" 
d="M264 497c0 -50 -38 -89 -86 -89c-50 0 -90 39 -90 87c0 44 41 81 90 81c48 0 86 -34 86 -79zM232 480c0 40 -31 80 -65 80c-28 0 -47 -20 -47 -49c0 -30 31 -79 57 -79c37 0 55 16 55 48z" />
    <glyph glyph-name="cent" unicode="&#xa2;" horiz-adv-x="428" 
d="M394 243c-83 -48 -95 -52 -113 -52c0 1 1 1 2 1c-9 9 -18 14 -51 24v-176c27 4 49 9 67 14c21 9 47 19 77 28l4 -2c0 -13 -49 -39 -148 -80v-72l-40 -14v70c-17 -5 -38 -8 -61 -8c-87 0 -131 52 -131 157c0 55 53 88 192 131v72l40 18v-82c103 0 130 -2 162 -29zM192 40
v181c-65 0 -88 -12 -88 -51c0 -79 23 -114 88 -130z" />
    <glyph glyph-name="sterling" unicode="&#xa3;" horiz-adv-x="550" 
d="M550 72c-52 -61 -77 -78 -155 -78c-26 0 -56 8 -89 23s-54 23 -61 23c-35 0 -82 -15 -141 -46v302h-104l59 40h45v122c0 57 111 118 217 118c45 0 82 -12 113 -36c-48 -36 -61 -44 -70 -44h-2c-36 32 -67 48 -94 48c-36 0 -60 -36 -60 -90v-118h138l-66 -40h-72v-248
c52 32 93 48 123 48c11 0 30 -8 57 -23s48 -23 64 -23c25 0 58 7 98 22z" />
    <glyph glyph-name="section" unicode="&#xa7;" horiz-adv-x="392" 
d="M342 143c0 -58 -139 -162 -234 -162c-35 0 -63 11 -86 34l74 72c10 -31 49 -53 94 -53c39 0 59 19 59 57c0 23 -18 41 -53 53c-133 27 -152 34 -152 56c0 36 30 95 67 126c-45 9 -67 22 -67 39c0 5 4 21 13 49c23 73 107 135 183 135c36 0 70 -10 102 -29l-74 -67
c-21 29 -54 43 -99 43c-31 0 -47 -11 -47 -32c0 -39 18 -46 163 -93c38 -16 57 -37 57 -63c0 -27 -26 -58 -78 -93c52 -17 78 -41 78 -72zM249 256c0 35 -39 57 -117 66c-7 -3 -10 -11 -10 -22c0 -33 39 -60 117 -79c7 11 10 22 10 35z" />
    <glyph glyph-name="bullet" unicode="&#x2022;" horiz-adv-x="1000" 
d="M391 248c0 -114 -80 -192 -196 -192s-195 77 -195 192c0 114 81 192 196 192c117 0 195 -76 195 -192z" />
    <glyph glyph-name="paragraph" unicode="&#xb6;" 
d="M584 -8h-544v632h544v-632zM544 32v552h-464v-552h464z" />
    <glyph glyph-name="germandbls" unicode="&#xdf;" horiz-adv-x="445" 
d="M387 167c0 -83 -86 -163 -175 -163c-9 0 -18 1 -27 4c65 31 104 90 104 155c0 102 -42 155 -126 159c65 46 86 78 86 127c0 57 -21 86 -63 86c-34 0 -51 -16 -51 -49v-416c0 -49 -31 -78 -127 -140c27 36 40 79 40 129v412c0 42 75 88 140 88c104 0 156 -28 156 -85
c0 -63 -39 -101 -149 -143h38c90 0 154 -68 154 -164z" />
    <glyph glyph-name="registered" unicode="&#xae;" horiz-adv-x="865" 
d="M868 243c-64 -65 -132 -91 -239 -91c-46 0 -111 13 -195 40c-83 27 -130 41 -140 41c-19 0 -94 -42 -94 -58v-154l-80 -59v171c0 34 -16 51 -48 51c-22 0 -46 -8 -72 -24c122 80 149 96 169 96c24 0 31 -12 35 -48c83 53 157 80 224 80c33 0 80 -13 141 -40
c62 -27 110 -40 143 -40c47 0 99 12 156 35z" />
    <glyph glyph-name="copyright" unicode="&#xa9;" horiz-adv-x="410" 
d="M368 -203c0 -78 -136 -157 -250 -157c-51 0 -83 18 -96 53l70 51c43 -48 81 -72 115 -72c49 0 81 47 81 104v224c-78 -11 -130 -16 -155 -16c-89 0 -133 41 -133 123c0 110 64 165 193 165c54 0 98 -13 132 -38l43 22v-459zM288 48v160c0 32 -22 48 -66 48
c-61 0 -134 -34 -139 -70c-2 -15 -3 -27 -3 -36c0 -72 64 -126 149 -126c39 0 59 8 59 24z" />
    <glyph glyph-name="trademark" unicode="&#x2122;" horiz-adv-x="712" 
d="M664 473c0 -37 -19 -58 -78 -91c31 22 46 46 46 71c0 49 -37 91 -82 91c-15 0 -33 -5 -54 -16v-120l-32 -24v136c-35 33 -44 40 -74 40c-47 0 -70 -22 -70 -65c0 -35 11 -63 32 -82l-27 -21c-25 25 -37 51 -37 78c0 59 60 106 130 106c36 0 46 -5 78 -37
c38 14 67 21 88 21c47 0 80 -36 80 -87zM279 560c-21 -16 -50 -24 -87 -24c-18 0 -33 3 -44 8c-45 -15 -68 -35 -68 -60c0 -37 53 -76 99 -76c27 0 54 11 81 32c-27 -37 -63 -56 -108 -56s-104 27 -104 84c0 35 27 65 80 88c-12 3 -29 4 -51 4c-27 0 -53 -11 -77 -32
c24 32 53 48 86 48c2 0 75 -10 118 -16h75z" />
    <glyph glyph-name="acute" unicode="&#xb4;" horiz-adv-x="440" 
d="M314 388c-24 -58 -64 -75 -174 -94c68 33 115 71 122 98c5 16 9 24 12 24c10 0 39 -20 40 -28z" />
    <glyph glyph-name="dieresis" unicode="&#xa8;" horiz-adv-x="410" 
d="M368 384c-10 -26 -80 -90 -105 -90l-2 -1c-20 0 -46 32 -46 56c0 14 19 33 57 56l24 5c0 -23 9 -34 27 -34c5 0 18 3 39 10zM152 384c-11 -26 -83 -89 -107 -89c-18 0 -46 34 -46 55c0 20 37 51 84 60c0 -23 8 -34 25 -34c5 0 18 3 38 10z" />
    <glyph glyph-name="AE" unicode="&#xc6;" horiz-adv-x="1048" 
d="M986 376c-47 -47 -116 -80 -167 -80h-376c55 -165 154 -248 299 -248c64 0 132 13 203 40c-95 -82 -163 -112 -258 -112s-180 43 -254 128c-133 0 -300 -52 -415 -128c-5 -3 -10 -5 -15 -5v8c123 151 224 379 242 546c23 19 51 36 85 51l67 -184c70 114 209 184 365 184
c69 0 140 -15 211 -46c-35 -47 -60 -72 -73 -74c-96 43 -178 64 -246 64c-84 0 -138 -18 -162 -55c-24 -36 -40 -74 -48 -113h425c39 0 78 8 117 24zM404 153c-41 52 -64 110 -112 263c-38 -110 -92 -222 -161 -336c63 25 154 49 273 73z" />
    <glyph glyph-name="Oslash" unicode="&#xd8;" horiz-adv-x="684" 
d="M656 332c0 -207 -189 -356 -388 -356c-75 0 -115 9 -162 56l-55 -56l-8 47l35 34c-41 51 -62 112 -62 183c0 193 171 352 377 352c66 0 104 -13 168 -55l39 39l19 -39l-28 -27c43 -39 65 -98 65 -178zM476 460c-58 45 -118 68 -180 68c-113 0 -176 -88 -176 -244
c0 -44 17 -85 52 -124zM560 225c0 69 -19 138 -58 205l-306 -302c66 -71 112 -96 179 -96c111 0 185 71 185 193z" />
    <glyph glyph-name="plusminus" unicode="&#xb1;" 
d="M584 -8h-544v632h544v-632zM544 32v552h-464v-552h464z" />
    <glyph glyph-name="yen" unicode="&#xa5;" 
d="M584 -8h-544v632h544v-632zM544 32v552h-464v-552h464z" />
    <glyph glyph-name="ordfeminine" unicode="&#xaa;" horiz-adv-x="330" 
d="M67 272h150c-23 0 -40 16 -49 48c-60 -40 -72 -48 -101 -48zM308 272l-12 -16h-296l12 16h55c-39 0 -59 19 -59 58c0 45 59 78 128 78h37c2 -1 6 -2 10 -2s10 1 16 2c0 -61 26 -96 67 -96c15 0 27 3 38 8c-35 -32 -64 -48 -87 -48h91zM168 323l-19 51
c-20 7 -39 10 -56 10c-25 0 -37 -9 -37 -26c0 -41 16 -62 47 -62c17 0 39 9 65 27z" />
    <glyph glyph-name="ordmasculine" unicode="&#xba;" horiz-adv-x="248" 
d="M216 378c0 -46 -76 -98 -138 -98c-43 0 -78 25 -78 55c0 46 72 89 148 89c45 0 68 -15 68 -46zM168 351c0 31 -27 57 -60 57c-30 0 -52 -22 -52 -54c0 -27 38 -50 74 -50c25 0 38 16 38 47zM224 272l-12 -16h-212l12 16h212z" />
    <glyph glyph-name="ae" unicode="&#xe6;" horiz-adv-x="730" 
d="M697 206l-265 -71c24 -74 60 -103 128 -103c31 0 68 8 109 24c-50 -41 -81 -64 -172 -64c-93 0 -128 19 -149 88c-43 -48 -144 -88 -224 -88c-102 0 -124 67 -124 114c0 107 134 166 376 166c5 -9 13 -23 24 -41c37 27 67 41 90 41c79 0 138 -10 179 -31
c10 -13 19 -25 28 -35zM567 188v18c-15 23 -38 34 -68 34c-41 0 -58 -23 -67 -88zM346 86l-38 106c-4 9 -81 24 -112 24c-51 0 -76 -17 -76 -51c0 -78 31 -117 93 -117c41 0 86 13 133 38z" />
    <glyph glyph-name="oslash" unicode="&#xf8;" horiz-adv-x="465" 
d="M438 258l-23 -14c11 -23 17 -42 17 -58c0 -96 -154 -210 -271 -210c-41 0 -77 11 -109 32l-68 -46v56l37 19c-14 20 -21 40 -21 61c0 99 144 190 288 190c32 0 61 -5 88 -16l62 42v-56zM304 218c-29 25 -58 38 -87 38c-60 0 -109 -54 -109 -121c0 -11 4 -23 12 -36z
M328 122c0 12 -3 33 -9 62l-175 -117c46 -29 83 -43 110 -43c49 0 74 33 74 98z" />
    <glyph glyph-name="questiondown" unicode="&#xbf;" horiz-adv-x="447" 
d="M312 490l-80 -50v72l80 50v-72zM450 136c0 -93 -159 -192 -283 -192c-80 0 -127 45 -127 122c0 61 31 84 166 182c23 20 34 49 34 88c0 16 -3 29 -8 40l80 48v-88c0 -27 -16 -40 -148 -145c-35 -31 -52 -61 -52 -88c0 -69 62 -127 135 -127c56 -4 117 39 117 87l-1 17z
" />
    <glyph glyph-name="exclamdown" unicode="&#xa1;" horiz-adv-x="162" 
d="M120 506l-80 -66v88l80 50v-72zM120 49l-80 -55v401l80 45v-391z" />
    <glyph glyph-name="logicalnot" unicode="&#xac;" 
d="M584 -8h-544v632h544v-632zM544 32v552h-464v-552h464z" />
    <glyph glyph-name="florin" unicode="&#x192;" horiz-adv-x="445" 
d="M400 104h-375v400h375v-400zM359 133v342h-292v-342h292z" />
    <glyph glyph-name="guillemotleft" unicode="&#xab;" horiz-adv-x="550" 
d="M526 39l-97 -23c-30 50 -78 79 -197 120c110 40 140 62 152 120l107 18c-15 -62 -41 -85 -123 -120c94 -42 130 -67 158 -115zM308 30l-102 -24c-65 43 -133 80 -206 112c105 18 167 60 187 126l98 12c-41 -81 -78 -113 -165 -127c79 -36 142 -69 188 -99z" />
    <glyph glyph-name="guillemotright" unicode="&#xbb;" horiz-adv-x="559" 
d="M536 162c-104 -17 -166 -59 -187 -126l-97 -12c40 82 81 114 164 128c-78 33 -141 66 -190 99l103 23c61 -40 130 -77 207 -112zM304 140c-108 -37 -140 -61 -153 -116l-108 -18c14 59 38 81 125 117c-83 35 -136 72 -160 111l97 22c27 -44 93 -83 199 -116z" />
    <glyph glyph-name="ellipsis" unicode="&#x2026;" horiz-adv-x="500" 
d="M435 -3c-43 -13 -67 -19 -71 -19c-7 3 -12 12 -16 25c-4 14 -8 23 -13 28l64 19zM274 -3c-43 -13 -67 -19 -71 -19c-7 3 -12 12 -16 25c-4 14 -8 23 -13 28l64 19zM115 -3c-43 -13 -67 -19 -71 -19c-7 3 -12 12 -16 25c-4 14 -8 23 -13 28l64 19z" />
    <glyph glyph-name="Agrave" unicode="&#xc0;" horiz-adv-x="765" 
d="M199 576c-111 19 -150 37 -174 98c0 11 27 28 41 28c3 0 4 -1 5 -4c17 -52 46 -79 128 -122zM751 56c-32 -43 -69 -64 -110 -64c-63 0 -116 41 -187 144c-179 -21 -314 -63 -405 -127c-14 -10 -32 -20 -53 -31c1 6 17 30 48 73c96 131 137 242 137 366c0 30 -8 95 -9 95
c0 4 26 26 77 64c211 -352 368 -528 471 -528c13 0 24 3 31 8zM416 167l-136 185c-25 -76 -77 -167 -157 -272c115 48 153 57 293 87z" />
    <glyph glyph-name="Atilde" unicode="&#xc3;" horiz-adv-x="740" 
d="M465 656c-27 -53 -62 -80 -106 -80c-15 0 -36 4 -65 12c-28 8 -50 12 -65 12c-36 0 -69 -8 -100 -24c30 53 67 80 112 80c16 0 39 -4 70 -12s54 -12 70 -12c31 0 59 8 84 24zM754 56c-31 -43 -68 -64 -111 -64c-57 0 -120 43 -187 128c-219 -24 -276 -44 -460 -142
c154 230 186 288 186 434c0 21 -7 92 -9 92c0 4 26 26 77 64c203 -337 370 -520 473 -520c15 0 26 3 31 8zM418 163l-137 173c-21 -65 -74 -151 -157 -256c88 34 186 62 294 83z" />
    <glyph glyph-name="Otilde" unicode="&#xd5;" horiz-adv-x="684" 
d="M544 680c-26 -59 -61 -88 -106 -88c-15 0 -37 5 -64 16s-49 16 -65 16c-37 0 -70 -11 -100 -32c31 59 68 88 112 88c16 0 39 -5 69 -16s53 -16 70 -16c31 0 59 11 84 32zM640 330c0 -190 -181 -354 -388 -354c-148 0 -252 109 -252 262c0 187 176 338 386 338
c157 0 254 -94 254 -246zM544 228c0 170 -116 300 -269 300c-114 0 -171 -82 -171 -245c0 -127 127 -243 263 -243c109 0 177 73 177 188z" />
    <glyph glyph-name="OE" unicode="&#x152;" horiz-adv-x="1305" 
d="M1311 376c-45 -44 -123 -80 -171 -80h-492c0 -75 28 -124 146 -208c53 -37 111 -56 175 -56c59 0 117 21 174 64c-96 -89 -162 -120 -260 -120c-104 0 -201 56 -292 168c-24 -71 -195 -168 -326 -168c-146 0 -249 111 -249 268c0 191 173 348 382 348
c115 0 193 -51 234 -152c106 97 196 136 318 136c71 0 149 -13 234 -39l-72 -81c-103 43 -189 64 -259 64c-87 0 -141 -19 -164 -56c-22 -37 -36 -74 -41 -112h543c34 0 74 8 120 24zM560 227c0 175 -114 309 -266 309c-112 0 -174 -92 -174 -257c0 -131 126 -247 263 -247
c108 0 177 76 177 195z" />
    <glyph glyph-name="oe" unicode="&#x153;" horiz-adv-x="768" 
d="M753 206l-265 -71c4 -78 30 -103 108 -103c37 0 80 8 131 24c-69 -60 -117 -80 -195 -80c-45 0 -140 10 -168 80c-78 -53 -141 -80 -189 -80c-96 0 -175 54 -175 124c0 107 139 188 308 188c61 0 108 -11 143 -32c45 11 91 16 136 16c65 0 115 -14 152 -43zM625 188v15
c-15 19 -39 29 -70 29c-49 0 -64 -18 -67 -80zM352 138c0 72 -50 126 -118 126c-59 0 -106 -53 -106 -118c0 -62 66 -114 146 -114c47 0 78 43 78 106z" />
    <glyph glyph-name="endash" unicode="&#x2013;" horiz-adv-x="547" 
d="M502 192l-110 -56h-360l110 56h360z" />
    <glyph glyph-name="emdash" unicode="&#x2014;" horiz-adv-x="780" 
d="M732 192l-110 -56h-590l110 56h590z" />
    <glyph glyph-name="quotedblleft" unicode="&#x201c;" horiz-adv-x="323" 
d="M293 464l-71 -58c-30 41 -45 71 -45 91c0 34 25 61 100 117l11 -29c-20 -13 -30 -31 -30 -52c0 -23 12 -46 35 -69zM143 464l-71 -58c-30 41 -45 71 -45 91c0 34 25 61 100 117l11 -29c-20 -13 -30 -31 -30 -52c0 -23 12 -46 35 -69z" />
    <glyph glyph-name="quotedblright" unicode="&#x201d;" horiz-adv-x="323" 
d="M304 510c0 -25 -33 -62 -100 -112l-11 29c20 13 30 31 30 52c0 23 -12 46 -35 69l71 58c30 -41 45 -73 45 -96zM154 510c0 -25 -33 -62 -100 -112l-11 29c20 13 30 31 30 52c0 23 -12 46 -35 69l71 58c30 -41 45 -73 45 -96z" />
    <glyph glyph-name="quoteleft" unicode="&#x2018;" horiz-adv-x="182" 
d="M143 464l-71 -58c-30 41 -45 71 -45 91c0 34 25 61 100 117l11 -29c-20 -13 -30 -31 -30 -52c0 -23 12 -46 35 -69z" />
    <glyph glyph-name="quoteright" unicode="&#x2019;" horiz-adv-x="186" 
d="M154 510c0 -25 -33 -62 -100 -112l-11 29c20 13 30 31 30 52c0 23 -12 46 -35 69l71 58c30 -41 45 -73 45 -96z" />
    <glyph glyph-name="divide" unicode="&#xf7;" 
d="M584 -8h-544v632h544v-632zM544 32v552h-464v-552h464z" />
    <glyph glyph-name="ydieresis" unicode="&#xff;" horiz-adv-x="532" 
d="M488 384c-11 -27 -84 -81 -108 -81c-19 0 -45 29 -45 51c0 18 35 48 80 56c0 -23 9 -34 28 -34c5 0 18 3 39 10zM272 384c-11 -24 -85 -81 -107 -81s-46 33 -46 51c0 19 37 47 83 56c0 -23 9 -34 26 -34c5 0 17 3 38 10zM532 284l-88 -76c-10 16 -23 24 -38 24
c-51 0 -150 -92 -150 -129v-368l-80 -93v394c0 67 -78 156 -144 156c-13 0 -24 -3 -32 -8c59 59 98 89 115 89c41 0 88 -48 141 -145c94 125 166 160 253 160c5 0 12 -1 23 -4z" />
    <glyph glyph-name="Ydieresis" unicode="&#x178;" horiz-adv-x="820" 
d="M584 656c-11 -27 -84 -81 -108 -81c-19 0 -45 29 -45 51c0 18 38 48 85 56c0 -23 9 -34 26 -34c5 0 17 3 36 10zM376 656c-11 -24 -85 -81 -107 -81s-46 33 -46 51s35 48 80 56c0 -23 9 -34 27 -34c5 0 18 3 40 10zM792 469c0 -74 -34 -117 -308 -424
c-72 -85 -108 -149 -108 -194c0 -47 32 -81 96 -104l-145 -105c-26 31 -39 67 -39 110c0 88 48 186 140 286l-308 443c-7 9 -28 14 -63 14c-24 0 -43 -2 -57 -7c55 69 100 104 135 104c23 0 45 -14 64 -42l301 -434c109 102 188 223 188 292c0 64 -56 96 -169 96
c70 48 127 72 172 72c56 0 101 -47 101 -107z" />
    <glyph glyph-name="currency" unicode="&#xa4;" 
d="M584 -8h-544v632h544v-632zM544 32v552h-464v-552h464z" />
    <glyph glyph-name="guilsinglleft" unicode="&#x2039;" horiz-adv-x="310" 
d="M289 28l-95 -22c-27 47 -72 74 -194 118c101 36 136 58 149 116l105 18c-13 -58 -37 -81 -118 -117c78 -34 129 -72 153 -113z" />
    <glyph glyph-name="guilsinglright" unicode="&#x203a;" horiz-adv-x="310" 
d="M304 141c-109 -39 -140 -60 -153 -117l-107 -18c15 58 42 83 124 118c-81 34 -134 71 -159 112l97 22c24 -41 90 -80 198 -117z" />
    <glyph glyph-name="daggerdbl" unicode="&#x2021;" horiz-adv-x="92" 
d="M88 448h-36c8 -37 12 -66 12 -88c0 -44 -5 -60 -32 -106v194h-32v16h32v48h-32v16h32v48h24v-48h32v-16h-32v-48h32v-16z" />
    <glyph glyph-name="periodcentered" unicode="&#xb7;" horiz-adv-x="354" 
d="M238 242c0 -32 -18 -48 -55 -48c-26 0 -57 49 -57 79c0 29 19 49 47 49c34 0 65 -40 65 -80z" />
    <glyph glyph-name="quotesinglbase" unicode="&#x201a;" horiz-adv-x="198" 
d="M154 30c0 -25 -33 -62 -100 -112l-11 29c20 13 30 31 30 52c0 23 -12 46 -35 69l71 58c30 -41 45 -73 45 -96z" />
    <glyph glyph-name="quotedblbase" unicode="&#x201e;" horiz-adv-x="323" 
d="M304 30c0 -25 -33 -62 -100 -112l-11 29c20 13 30 31 30 52c0 23 -12 46 -35 69l71 58c30 -41 45 -73 45 -96zM154 30c0 -25 -33 -62 -100 -112l-11 29c20 13 30 31 30 52c0 23 -12 46 -35 69l71 58c30 -41 45 -73 45 -96z" />
    <glyph glyph-name="perthousand" unicode="&#x2030;" 
d="M584 -8h-544v632h544v-632zM544 32v552h-464v-552h464z" />
    <glyph glyph-name="Acircumflex" unicode="&#xc2;" horiz-adv-x="765" 
d="M371 629l-40 -37c-23 12 -54 37 -91 74c-10 -19 -34 -43 -73 -74l-11 10c60 51 89 82 104 112c35 -42 72 -70 111 -85zM751 56c-32 -43 -69 -64 -110 -64c-58 0 -120 48 -187 144c-179 -21 -314 -63 -405 -127c-14 -10 -32 -20 -53 -31c1 7 17 31 48 74
c95 130 137 245 137 371c0 30 -8 96 -9 96c0 6 26 27 77 65c202 -345 370 -536 471 -536c13 0 24 3 31 8zM416 167l-136 185c-25 -76 -77 -167 -157 -272c115 48 153 57 293 87z" />
    <glyph glyph-name="Ecircumflex" unicode="&#xca;" horiz-adv-x="752" 
d="M527 629l-40 -37c-23 12 -54 37 -91 74c-10 -19 -34 -43 -73 -74l-11 10c60 51 89 82 104 112c35 -42 72 -70 111 -85zM750 376c-46 -43 -124 -80 -170 -80h-492c0 -71 28 -116 146 -195c53 -35 111 -53 174 -53c58 0 116 16 174 48c-89 -89 -153 -120 -247 -120
c-158 0 -335 144 -335 279c0 174 179 321 401 321c74 0 148 -15 223 -44l-72 -68c-101 37 -187 56 -259 56c-87 0 -141 -18 -164 -55c-22 -37 -36 -74 -41 -113h542c34 0 74 8 120 24z" />
    <glyph glyph-name="Aacute" unicode="&#xc1;" horiz-adv-x="765" 
d="M396 641c-21 -28 -53 -38 -174 -49c72 19 115 37 124 52c5 9 10 14 13 14c17 0 29 -6 37 -17zM751 56c-32 -43 -69 -64 -110 -64c-63 0 -116 41 -187 144c-179 -21 -314 -63 -405 -127c-14 -10 -32 -20 -53 -31c1 6 17 30 48 73c96 131 137 242 137 366c0 30 -8 95 -9 95
c0 4 26 26 77 64c211 -352 368 -528 471 -528c13 0 24 3 31 8zM416 167l-136 185c-25 -76 -77 -167 -157 -272c115 48 153 57 293 87z" />
    <glyph glyph-name="Edieresis" unicode="&#xcb;" horiz-adv-x="752" 
d="M608 664c-13 -29 -81 -88 -105 -88l-2 -1c-20 0 -46 34 -46 59c0 15 20 34 61 59l26 5c0 -28 8 -42 25 -42c5 0 16 3 35 10zM400 664c-7 -18 -78 -88 -104 -88l-2 -1c-26 0 -47 41 -47 59c0 15 19 34 58 59l24 5c0 -28 9 -42 26 -42c5 0 18 3 39 10zM750 376
c-46 -43 -124 -80 -170 -80h-492c0 -71 27 -116 145 -195c53 -35 110 -53 173 -53c57 0 115 16 173 48c-90 -90 -152 -120 -246 -120c-159 0 -333 144 -333 279c0 173 181 321 401 321c73 0 147 -15 222 -44l-72 -68c-101 37 -187 56 -259 56c-86 0 -140 -18 -163 -55
c-22 -37 -36 -74 -41 -113h542c34 0 74 8 120 24z" />
    <glyph glyph-name="Egrave" unicode="&#xc8;" horiz-adv-x="752" 
d="M431 592c-111 19 -150 37 -174 98c0 11 27 28 41 28c3 0 4 -1 5 -4c17 -52 46 -79 128 -122zM750 376c-46 -43 -124 -80 -170 -80h-492c0 -71 28 -116 146 -195c53 -35 111 -53 174 -53c58 0 116 16 174 48c-89 -89 -153 -120 -247 -120c-158 0 -335 144 -335 279
c0 174 179 321 401 321c74 0 148 -15 223 -44l-72 -68c-101 37 -187 56 -259 56c-87 0 -141 -18 -164 -55c-22 -37 -36 -74 -41 -113h542c34 0 74 8 120 24z" />
    <glyph glyph-name="Iacute" unicode="&#xcd;" horiz-adv-x="206" 
d="M200 670c-24 -58 -64 -75 -174 -94c68 33 115 71 122 98c5 16 9 24 12 24c10 0 39 -20 40 -28zM192 45l-104 -83v420c0 39 -24 58 -72 58c47 68 124 136 153 136c15 0 23 -12 23 -35v-496z" />
    <glyph glyph-name="Icircumflex" unicode="&#xce;" horiz-adv-x="206" 
d="M215 629l-42 -37c-25 13 -56 37 -93 74c-7 -15 -30 -40 -69 -74l-11 10c53 47 86 84 99 112c38 -42 77 -70 116 -85zM184 45l-104 -83v420c0 39 -23 58 -70 58c49 68 121 136 151 136c15 0 23 -12 23 -35v-496z" />
    <glyph glyph-name="Idieresis" unicode="&#xcf;" horiz-adv-x="206" 
d="M320 655c-12 -26 -82 -79 -105 -79l-2 -1c-20 0 -46 34 -46 59c0 15 19 34 57 59l25 5c0 -27 10 -41 29 -41h36c1 0 3 -1 6 -2zM104 655c-10 -23 -84 -79 -104 -79l-2 -1c-22 0 -47 31 -47 59c0 15 19 34 58 59l24 5c0 -27 10 -41 29 -41h36c1 0 3 -1 6 -2zM192 45
l-104 -83v420c0 39 -25 58 -76 58c53 71 126 136 157 136c15 0 23 -12 23 -35v-496z" />
    <glyph glyph-name="Igrave" unicode="&#xcc;" horiz-adv-x="206" 
d="M173 592c-119 23 -150 42 -173 104c0 12 29 30 41 30c3 0 4 -1 5 -4c18 -55 56 -94 127 -130zM184 45l-104 -83v420c0 39 -24 58 -72 58c47 68 124 136 153 136c15 0 23 -12 23 -35v-496z" />
    <glyph glyph-name="Oacute" unicode="&#xd3;" horiz-adv-x="684" 
d="M502 692c-21 -57 -58 -79 -174 -100c67 36 115 76 123 105c5 17 8 25 11 25c10 0 39 -22 40 -30zM640 330c0 -190 -181 -354 -388 -354c-148 0 -252 109 -252 262c0 187 176 338 386 338c157 0 254 -94 254 -246zM544 228c0 170 -116 300 -269 300
c-114 0 -171 -82 -171 -245c0 -127 127 -243 263 -243c109 0 177 73 177 188z" />
    <glyph glyph-name="Ocircumflex" unicode="&#xd4;" horiz-adv-x="684" 
d="M453 637l-40 -37c-23 12 -54 37 -91 74c-10 -19 -34 -43 -73 -74l-11 10c60 51 89 82 104 112c35 -42 72 -70 111 -85zM640 334c0 -197 -177 -358 -388 -358c-147 0 -252 111 -252 266c0 188 175 342 386 342c151 0 254 -90 254 -250zM544 228c0 170 -116 300 -269 300
c-114 0 -171 -82 -171 -245c0 -127 127 -243 263 -243c109 0 177 73 177 188z" />
    <glyph glyph-name="Ograve" unicode="&#xd2;" horiz-adv-x="684" 
d="M401 600c-111 19 -150 37 -174 98c0 11 27 28 41 28c3 0 4 -1 5 -4c17 -52 46 -79 128 -122zM640 330c0 -190 -181 -354 -388 -354c-148 0 -252 109 -252 262c0 187 176 338 386 338c157 0 254 -94 254 -246zM544 226c0 169 -115 296 -269 296c-111 0 -171 -85 -171 -242
c0 -125 127 -240 263 -240c109 0 177 71 177 186z" />
    <glyph glyph-name="Uacute" unicode="&#xda;" horiz-adv-x="665" 
d="M448 683c0 -20 -33 -61 -58 -73c-27 -13 -65 -25 -116 -34c79 48 116 82 122 111c5 18 9 27 12 27c9 0 40 -24 40 -31zM616 63l-104 -101v120c-84 -65 -158 -98 -222 -98c-117 0 -226 83 -226 190v255c0 42 -13 54 -64 64c68 55 117 83 146 83c15 0 22 -9 22 -27v-311
c0 -79 39 -132 116 -158c47 -16 86 -24 115 -24c48 0 86 17 113 50v333c0 36 -15 49 -56 49c66 59 112 88 139 88c14 0 21 -9 21 -26v-487z" />
    <glyph glyph-name="Ucircumflex" unicode="&#xdb;" horiz-adv-x="665" 
d="M451 629l-40 -37c-23 12 -54 37 -91 74c-10 -19 -34 -43 -73 -74l-11 10c60 51 89 82 104 112c35 -42 72 -70 111 -85zM616 63l-104 -101v120c-84 -65 -158 -98 -222 -98c-117 0 -226 83 -226 190v255c0 42 -13 54 -64 64c68 55 117 83 146 83c15 0 22 -9 22 -27v-311
c0 -79 39 -132 116 -158c47 -16 86 -24 115 -24c48 0 86 17 113 50v333c0 36 -15 49 -56 49c66 59 112 88 139 88c14 0 21 -9 21 -26v-487z" />
    <glyph glyph-name="Ugrave" unicode="&#xd9;" horiz-adv-x="665" 
d="M427 576c-111 19 -150 37 -174 98c0 11 27 28 41 28c3 0 4 -1 5 -4c17 -52 46 -79 128 -122zM616 63l-104 -101v120c-84 -65 -158 -98 -222 -98c-117 0 -226 83 -226 190v255c0 42 -13 54 -64 64c68 55 117 83 146 83c15 0 22 -9 22 -27v-311c0 -79 39 -132 116 -158
c47 -16 86 -24 115 -24c48 0 86 17 113 50v333c0 36 -15 49 -56 49c66 59 112 88 139 88c14 0 21 -9 21 -26v-487z" />
    <glyph glyph-name="circumflex" unicode="&#x2c6;" 
d="M584 -8h-544v632h544v-632zM544 32v552h-464v-552h464z" />
    <glyph glyph-name="tilde" unicode="&#x2dc;" 
d="M584 -8h-544v632h544v-632zM544 32v552h-464v-552h464z" />
    <glyph glyph-name="macron" unicode="&#xaf;" horiz-adv-x="417" 
d="M394 352l-110 -40h-270l110 40h270z" />
    <glyph glyph-name="cedilla" unicode="&#xb8;" horiz-adv-x="400" 
d="M272 -97c0 -25 -40 -39 -112 -39v4c37 9 56 21 56 38c0 9 -9 24 -28 45s-28 33 -28 38s2 8 7 11h78c-14 0 -21 -6 -21 -17c0 -13 8 -27 24 -44s24 -29 24 -36z" />
    <glyph glyph-name="Scaron" unicode="&#x160;" 
d="M584 -8h-544v632h544v-632zM544 32v552h-464v-552h464z" />
    <glyph glyph-name="scaron" unicode="&#x161;" 
d="M584 -8h-544v632h544v-632zM544 32v552h-464v-552h464z" />
    <glyph glyph-name="brokenbar" unicode="&#xa6;" horiz-adv-x="147" 
d="M80 357h-80v235h80v-235zM80 -8h-80v273h80v-273z" />
    <glyph glyph-name="Eth" unicode="&#xd0;" horiz-adv-x="832" 
d="M816 277c0 -156 -156 -285 -340 -285c-292 0 -312 54 -312 230l-88 -1l57 57h36c3 29 14 91 31 188c-103 0 -153 21 -200 83l108 75l4 -6c-3 -1 -4 -4 -4 -9c0 -10 28 -26 85 -48c34 -13 104 -22 209 -26c264 -10 293 -14 342 -77c48 -62 72 -122 72 -181zM728 249
c0 171 -194 211 -445 211c-21 -59 -27 -107 -27 -182l147 1l-58 -57h-83c11 -88 33 -123 104 -154c43 -19 87 -28 132 -28c153 0 230 70 230 209z" />
    <glyph glyph-name="eth" unicode="&#xf0;" horiz-adv-x="466" 
d="M328 130c0 72 -50 126 -118 126c-59 0 -106 -53 -106 -118c0 -62 66 -114 146 -114c47 0 78 43 78 106zM374 532l17 -32l-70 -39c92 -116 111 -223 111 -274c0 -102 -159 -211 -274 -211c-68 0 -158 39 -158 121c0 101 145 191 296 191h28c-16 45 -44 87 -84 128l-78 -43
l-16 32l66 37c-22 19 -55 49 -100 91l59 72c39 -23 81 -62 127 -115z" />
    <glyph glyph-name="Yacute" unicode="&#xdd;" horiz-adv-x="0" 
 />
    <glyph glyph-name="yacute" unicode="&#xfd;" horiz-adv-x="532" 
d="M355 389c-29 -56 -67 -75 -179 -93c63 31 115 69 123 97c5 15 8 23 11 23c7 0 9 -1 45 -27zM532 284l-88 -76c-10 16 -23 24 -38 24c-51 0 -150 -92 -150 -129v-368l-80 -93v394c0 67 -78 156 -144 156c-13 0 -24 -3 -32 -8c59 59 98 89 115 89c41 0 88 -48 141 -145
c94 125 166 160 253 160c5 0 12 -1 23 -4z" />
    <glyph glyph-name="Thorn" unicode="&#xde;" horiz-adv-x="712" 
d="M321 -45c-47 0 -93 13 -137 40v-107l-104 -70v550c0 52 -20 66 -80 66c81 84 132 126 153 127c29 -14 31 -56 31 -196c59 57 164 96 254 96c104 0 227 -48 227 -208c0 -173 -142 -298 -344 -298zM589 192c0 127 -95 214 -233 214c-104 0 -172 -58 -172 -67v-250
c0 -43 110 -78 208 -78c147 0 197 47 197 181z" />
    <glyph glyph-name="thorn" unicode="&#xfe;" horiz-adv-x="530" 
d="M504 148c0 -57 -45 -101 -135 -134c-35 -13 -104 -29 -209 -49v-269l-80 -70v544c0 197 -17 254 -76 254c75 35 113 52 115 52c39 0 42 -33 42 -214c0 -23 1 -36 3 -40c42 27 132 50 195 50c97 0 145 -41 145 -124zM400 117c0 58 -49 123 -120 123
c-47 0 -120 -32 -120 -56v-134c0 -26 69 -42 120 -42c93 0 120 29 120 109z" />
    <glyph glyph-name="multiply" unicode="&#xd7;" horiz-adv-x="0" 
 />
    <glyph glyph-name="onesuperior" unicode="&#xb9;" horiz-adv-x="0" 
 />
    <glyph glyph-name="twosuperior" unicode="&#xb2;" horiz-adv-x="0" 
 />
    <glyph glyph-name="threesuperior" unicode="&#xb3;" horiz-adv-x="0" 
 />
    <glyph glyph-name="onehalf" unicode="&#xbd;" horiz-adv-x="0" 
 />
    <glyph glyph-name="onequarter" unicode="&#xbc;" horiz-adv-x="0" 
 />
    <glyph glyph-name="threequarters" unicode="&#xbe;" horiz-adv-x="0" 
 />
    <glyph glyph-name="nonbreakingspace" unicode="&#xa0;" horiz-adv-x="400" 
 />
    <glyph glyph-name="mu1" unicode="&#xb5;" horiz-adv-x="592" 
d="M554 78c0 -12 -25 -40 -74 -84c-25 32 -52 54 -83 65c-211 59 -256 75 -279 99c-3 -12 -5 -24 -5 -37c0 -47 22 -71 67 -71c-39 -41 -74 -61 -103 -61c-27 0 -41 19 -41 57v132c0 15 -8 22 -24 22c-4 0 -8 -1 -12 -2c17 15 59 43 124 84c27 -56 30 -57 212 -114
c64 -20 109 -41 136 -62c3 15 5 30 5 45c0 44 -8 53 -39 53c43 47 75 71 96 71c13 0 20 -11 20 -33v-164z" />
  </font>
</defs>
</svg>
